<svg xmlns="http://www.w3.org/2000/svg" xmlns:xlink="http://www.w3.org/1999/xlink" width="40" zoomAndPan="magnify" viewBox="0 0 30 30.000001" height="40" preserveAspectRatio="xMidYMid meet" version="1.0"><defs><clipPath id="id1"><path d="M 0.484375 0 L 29.515625 0 L 29.515625 29.03125 L 0.484375 29.03125 Z M 0.484375 0 " clip-rule="nonzero"/></clipPath><clipPath id="id2"><path d="M 2.832031 2.347656 L 27.507812 2.347656 L 27.507812 27.023438 L 2.832031 27.023438 Z M 2.832031 2.347656 " clip-rule="nonzero"/></clipPath><clipPath id="id3"><path d="M 21.339844 15.457031 C 20.910156 15.457031 20.496094 15.542969 20.105469 15.71875 C 19.539062 15.207031 18.878906 14.886719 18.125 14.757812 C 17.375 14.628906 16.644531 14.714844 15.941406 15.011719 C 15.449219 14.792969 14.933594 14.6875 14.398438 14.6875 C 13.863281 14.6875 13.347656 14.792969 12.855469 15.011719 C 12.152344 14.714844 11.425781 14.628906 10.671875 14.757812 C 9.917969 14.886719 9.257812 15.207031 8.691406 15.71875 C 8.300781 15.542969 7.886719 15.457031 7.457031 15.457031 C 7.117188 15.457031 6.785156 15.515625 6.464844 15.625 C 6.140625 15.738281 5.84375 15.898438 5.574219 16.105469 C 5.304688 16.316406 5.078125 16.5625 4.890625 16.847656 C 4.703125 17.132812 4.566406 17.441406 4.480469 17.769531 L 2.832031 17.769531 L 2.832031 18.542969 C 2.832031 19.097656 2.886719 19.648438 2.996094 20.195312 C 3.105469 20.742188 3.269531 21.273438 3.480469 21.785156 C 3.695312 22.300781 3.957031 22.789062 4.265625 23.25 C 4.574219 23.714844 4.925781 24.140625 5.320312 24.535156 C 5.714844 24.929688 6.140625 25.28125 6.605469 25.589844 C 7.066406 25.898438 7.554688 26.160156 8.070312 26.375 C 8.585938 26.589844 9.113281 26.75 9.660156 26.859375 C 10.207031 26.96875 10.757812 27.023438 11.3125 27.023438 L 19.027344 27.023438 C 19.582031 27.027344 20.136719 26.972656 20.683594 26.867188 C 21.230469 26.757812 21.761719 26.601562 22.277344 26.386719 C 22.792969 26.175781 23.28125 25.914062 23.746094 25.605469 C 24.210938 25.296875 24.640625 24.945312 25.035156 24.550781 C 25.425781 24.15625 25.777344 23.726562 26.089844 23.261719 C 26.398438 22.796875 26.660156 22.308594 26.871094 21.792969 C 27.082031 21.277344 27.242188 20.746094 27.351562 20.199219 C 27.457031 19.652344 27.511719 19.097656 27.507812 18.542969 L 27.507812 17.769531 L 24.316406 17.769531 C 24.230469 17.441406 24.09375 17.132812 23.90625 16.847656 C 23.71875 16.5625 23.492188 16.316406 23.222656 16.105469 C 22.953125 15.898438 22.65625 15.738281 22.335938 15.625 C 22.011719 15.515625 21.679688 15.457031 21.339844 15.457031 Z M 20.429688 17.308594 C 20.605469 17.175781 20.800781 17.089844 21.015625 17.039062 C 21.230469 16.992188 21.445312 16.992188 21.660156 17.035156 C 21.875 17.082031 22.070312 17.167969 22.25 17.292969 C 22.425781 17.421875 22.570312 17.582031 22.679688 17.769531 L 19.796875 17.769531 Z M 9.464844 17.167969 C 9.636719 16.933594 9.84375 16.738281 10.089844 16.582031 C 10.332031 16.425781 10.597656 16.316406 10.882812 16.257812 C 11.167969 16.199219 11.453125 16.195312 11.742188 16.242188 C 12.027344 16.289062 12.296875 16.390625 12.546875 16.535156 L 12.933594 16.769531 L 13.320312 16.535156 C 13.679688 16.335938 14.0625 16.234375 14.476562 16.234375 C 14.886719 16.234375 15.273438 16.335938 15.632812 16.535156 L 16.019531 16.769531 L 16.402344 16.535156 C 16.652344 16.398438 16.914062 16.308594 17.191406 16.269531 C 17.472656 16.226562 17.75 16.234375 18.027344 16.292969 C 18.300781 16.351562 18.558594 16.453125 18.796875 16.605469 C 19.035156 16.757812 19.242188 16.945312 19.410156 17.167969 L 19.796875 17.769531 L 9 17.769531 Z M 8.367188 17.308594 L 9 17.769531 L 6.117188 17.769531 C 6.226562 17.582031 6.371094 17.421875 6.550781 17.292969 C 6.726562 17.167969 6.925781 17.082031 7.140625 17.035156 C 7.355469 16.992188 7.570312 16.992188 7.78125 17.039062 C 7.996094 17.089844 8.191406 17.175781 8.367188 17.308594 Z M 23.945312 23.476562 C 23.289062 24.125 22.539062 24.621094 21.683594 24.96875 C 20.832031 25.316406 19.945312 25.488281 19.027344 25.484375 L 11.3125 25.484375 C 10.890625 25.484375 10.46875 25.449219 10.050781 25.375 C 9.628906 25.300781 9.222656 25.1875 8.824219 25.039062 C 8.425781 24.886719 8.046875 24.703125 7.683594 24.484375 C 7.320312 24.261719 6.976562 24.011719 6.660156 23.730469 C 6.34375 23.445312 6.054688 23.136719 5.792969 22.800781 C 5.53125 22.46875 5.304688 22.109375 5.109375 21.734375 C 4.914062 21.355469 4.753906 20.964844 4.628906 20.558594 C 4.507812 20.148438 4.421875 19.734375 4.375 19.3125 L 25.964844 19.3125 C 25.777344 20.925781 25.101562 22.304688 23.945312 23.445312 Z M 9.386719 14.6875 C 9.640625 14.6875 9.886719 14.636719 10.125 14.539062 C 10.359375 14.441406 10.570312 14.300781 10.75 14.121094 C 10.929688 13.941406 11.070312 13.730469 11.167969 13.496094 C 11.265625 13.261719 11.3125 13.015625 11.3125 12.757812 C 11.3125 12.503906 11.265625 12.257812 11.167969 12.019531 C 11.070312 11.785156 10.929688 11.574219 10.75 11.394531 C 10.570312 11.214844 10.359375 11.074219 10.125 10.976562 C 9.886719 10.878906 9.640625 10.832031 9.386719 10.832031 L 7.84375 10.832031 C 7.589844 10.832031 7.34375 10.878906 7.105469 10.976562 C 6.871094 11.074219 6.660156 11.214844 6.480469 11.394531 C 6.300781 11.574219 6.160156 11.785156 6.0625 12.019531 C 5.964844 12.257812 5.914062 12.503906 5.914062 12.757812 C 5.914062 13.015625 5.964844 13.261719 6.0625 13.496094 C 6.160156 13.730469 6.300781 13.941406 6.480469 14.121094 C 6.660156 14.300781 6.871094 14.441406 7.105469 14.539062 C 7.34375 14.636719 7.589844 14.6875 7.84375 14.6875 Z M 7.457031 12.757812 C 7.457031 12.652344 7.496094 12.5625 7.570312 12.484375 C 7.648438 12.410156 7.738281 12.371094 7.84375 12.371094 L 9.386719 12.371094 C 9.492188 12.371094 9.582031 12.410156 9.660156 12.484375 C 9.734375 12.5625 9.773438 12.652344 9.773438 12.757812 C 9.773438 12.863281 9.734375 12.957031 9.660156 13.03125 C 9.582031 13.105469 9.492188 13.144531 9.386719 13.144531 L 7.84375 13.144531 C 7.738281 13.144531 7.648438 13.105469 7.570312 13.03125 C 7.496094 12.957031 7.457031 12.863281 7.457031 12.757812 Z M 18.640625 13.914062 L 20.183594 13.914062 C 20.4375 13.914062 20.683594 13.867188 20.921875 13.769531 C 21.15625 13.671875 21.363281 13.53125 21.546875 13.351562 C 21.726562 13.167969 21.867188 12.960938 21.964844 12.726562 C 22.0625 12.488281 22.109375 12.242188 22.109375 11.988281 C 22.109375 11.730469 22.0625 11.484375 21.964844 11.25 C 21.867188 11.011719 21.726562 10.804688 21.546875 10.625 C 21.363281 10.441406 21.15625 10.304688 20.921875 10.207031 C 20.683594 10.109375 20.4375 10.058594 20.183594 10.058594 L 18.640625 10.058594 C 18.382812 10.058594 18.136719 10.109375 17.902344 10.207031 C 17.667969 10.304688 17.457031 10.441406 17.277344 10.625 C 17.097656 10.804688 16.957031 11.011719 16.859375 11.25 C 16.761719 11.484375 16.710938 11.730469 16.710938 11.988281 C 16.710938 12.242188 16.761719 12.488281 16.859375 12.726562 C 16.957031 12.960938 17.097656 13.167969 17.277344 13.351562 C 17.457031 13.53125 17.667969 13.671875 17.902344 13.769531 C 18.136719 13.867188 18.382812 13.914062 18.640625 13.914062 Z M 18.640625 11.601562 L 20.183594 11.601562 C 20.289062 11.601562 20.378906 11.640625 20.457031 11.714844 C 20.53125 11.789062 20.566406 11.878906 20.566406 11.988281 C 20.566406 12.09375 20.53125 12.183594 20.457031 12.257812 C 20.378906 12.335938 20.289062 12.371094 20.183594 12.371094 L 18.640625 12.371094 C 18.535156 12.371094 18.441406 12.335938 18.367188 12.257812 C 18.292969 12.183594 18.253906 12.09375 18.253906 11.988281 C 18.253906 11.878906 18.292969 11.789062 18.367188 11.714844 C 18.441406 11.640625 18.535156 11.601562 18.640625 11.601562 Z M 15.941406 2.347656 L 10.542969 2.347656 L 10.542969 3.890625 L 6.6875 3.890625 L 6.6875 5.433594 L 10.542969 5.433594 L 10.542969 6.203125 L 6.6875 6.203125 L 6.6875 7.746094 L 10.542969 7.746094 L 10.542969 10.058594 L 15.941406 10.058594 L 15.941406 7.746094 L 27.507812 7.746094 L 27.507812 6.203125 L 15.941406 6.203125 L 15.941406 5.433594 L 27.507812 5.433594 L 27.507812 3.890625 L 15.941406 3.890625 Z M 14.398438 3.890625 L 14.398438 5.433594 C 13.707031 4.847656 12.9375 4.40625 12.085938 4.105469 L 12.085938 3.890625 Z M 12.085938 5.769531 C 12.363281 5.898438 12.628906 6.042969 12.886719 6.203125 L 12.085938 6.203125 Z M 12.085938 8.515625 L 12.085938 7.746094 L 14.320312 7.746094 C 14.320312 7.746094 14.320312 7.855469 14.320312 7.914062 L 14.320312 8.515625 Z M 12.085938 8.515625 " clip-rule="nonzero"/></clipPath><linearGradient x1="0.0000000394862" gradientTransform="matrix(1.542339, 0, 0, 1.542339, 2.831275, 2.347406)" y1="8" x2="15.999998" gradientUnits="userSpaceOnUse" y2="8" id="id4"><stop stop-opacity="1" stop-color="rgb(7.099915%, 76.098633%, 91.398621%)" offset="0"/><stop stop-opacity="1" stop-color="rgb(7.548523%, 75.892639%, 91.407776%)" offset="0.00390625"/><stop stop-opacity="1" stop-color="rgb(7.998657%, 75.686646%, 91.416931%)" offset="0.0078125"/><stop stop-opacity="1" stop-color="rgb(8.447266%, 75.479126%, 91.424561%)" offset="0.0117188"/><stop stop-opacity="1" stop-color="rgb(8.8974%, 75.273132%, 91.433716%)" offset="0.015625"/><stop stop-opacity="1" stop-color="rgb(9.347534%, 75.067139%, 91.442871%)" offset="0.0195313"/><stop stop-opacity="1" stop-color="rgb(9.797668%, 74.861145%, 91.452026%)" offset="0.0234375"/><stop stop-opacity="1" stop-color="rgb(10.246277%, 74.653625%, 91.459656%)" offset="0.0273438"/><stop stop-opacity="1" stop-color="rgb(10.696411%, 74.447632%, 91.468811%)" offset="0.03125"/><stop stop-opacity="1" stop-color="rgb(11.14502%, 74.240112%, 91.477966%)" offset="0.0351562"/><stop stop-opacity="1" stop-color="rgb(11.595154%, 74.034119%, 91.487122%)" offset="0.0390625"/><stop stop-opacity="1" stop-color="rgb(12.043762%, 73.828125%, 91.494751%)" offset="0.0429688"/><stop stop-opacity="1" stop-color="rgb(12.493896%, 73.622131%, 91.503906%)" offset="0.046875"/><stop stop-opacity="1" stop-color="rgb(12.944031%, 73.414612%, 91.513062%)" offset="0.0507812"/><stop stop-opacity="1" stop-color="rgb(13.394165%, 73.208618%, 91.522217%)" offset="0.0546875"/><stop stop-opacity="1" stop-color="rgb(13.842773%, 73.001099%, 91.529846%)" offset="0.0585938"/><stop stop-opacity="1" stop-color="rgb(14.292908%, 72.795105%, 91.539001%)" offset="0.0625"/><stop stop-opacity="1" stop-color="rgb(14.741516%, 72.589111%, 91.548157%)" offset="0.0664062"/><stop stop-opacity="1" stop-color="rgb(15.19165%, 72.383118%, 91.557312%)" offset="0.0703125"/><stop stop-opacity="1" stop-color="rgb(15.641785%, 72.175598%, 91.564941%)" offset="0.0742187"/><stop stop-opacity="1" stop-color="rgb(16.091919%, 71.969604%, 91.574097%)" offset="0.078125"/><stop stop-opacity="1" stop-color="rgb(16.540527%, 71.762085%, 91.583252%)" offset="0.0820312"/><stop stop-opacity="1" stop-color="rgb(16.990662%, 71.556091%, 91.592407%)" offset="0.0859375"/><stop stop-opacity="1" stop-color="rgb(17.43927%, 71.350098%, 91.600037%)" offset="0.0898438"/><stop stop-opacity="1" stop-color="rgb(17.889404%, 71.144104%, 91.609192%)" offset="0.09375"/><stop stop-opacity="1" stop-color="rgb(18.339539%, 70.936584%, 91.618347%)" offset="0.0976562"/><stop stop-opacity="1" stop-color="rgb(18.789673%, 70.730591%, 91.627502%)" offset="0.101562"/><stop stop-opacity="1" stop-color="rgb(19.238281%, 70.524597%, 91.635132%)" offset="0.105469"/><stop stop-opacity="1" stop-color="rgb(19.688416%, 70.318604%, 91.644287%)" offset="0.109375"/><stop stop-opacity="1" stop-color="rgb(20.137024%, 70.111084%, 91.653442%)" offset="0.113281"/><stop stop-opacity="1" stop-color="rgb(20.587158%, 69.90509%, 91.662598%)" offset="0.117188"/><stop stop-opacity="1" stop-color="rgb(21.037292%, 69.697571%, 91.670227%)" offset="0.121094"/><stop stop-opacity="1" stop-color="rgb(21.487427%, 69.491577%, 91.679382%)" offset="0.125"/><stop stop-opacity="1" stop-color="rgb(21.936035%, 69.285583%, 91.688538%)" offset="0.128906"/><stop stop-opacity="1" stop-color="rgb(22.386169%, 69.07959%, 91.697693%)" offset="0.132812"/><stop stop-opacity="1" stop-color="rgb(22.834778%, 68.87207%, 91.705322%)" offset="0.136719"/><stop stop-opacity="1" stop-color="rgb(23.284912%, 68.666077%, 91.714478%)" offset="0.140625"/><stop stop-opacity="1" stop-color="rgb(23.735046%, 68.458557%, 91.723633%)" offset="0.144531"/><stop stop-opacity="1" stop-color="rgb(24.185181%, 68.252563%, 91.732788%)" offset="0.148438"/><stop stop-opacity="1" stop-color="rgb(24.633789%, 68.04657%, 91.740417%)" offset="0.152344"/><stop stop-opacity="1" stop-color="rgb(25.083923%, 67.840576%, 91.749573%)" offset="0.15625"/><stop stop-opacity="1" stop-color="rgb(25.532532%, 67.633057%, 91.758728%)" offset="0.160156"/><stop stop-opacity="1" stop-color="rgb(25.982666%, 67.427063%, 91.767883%)" offset="0.164062"/><stop stop-opacity="1" stop-color="rgb(26.4328%, 67.221069%, 91.775513%)" offset="0.167969"/><stop stop-opacity="1" stop-color="rgb(26.882935%, 67.015076%, 91.784668%)" offset="0.171875"/><stop stop-opacity="1" stop-color="rgb(27.331543%, 66.807556%, 91.793823%)" offset="0.175781"/><stop stop-opacity="1" stop-color="rgb(27.781677%, 66.601562%, 91.802979%)" offset="0.179687"/><stop stop-opacity="1" stop-color="rgb(28.230286%, 66.394043%, 91.810608%)" offset="0.183594"/><stop stop-opacity="1" stop-color="rgb(28.68042%, 66.188049%, 91.819763%)" offset="0.1875"/><stop stop-opacity="1" stop-color="rgb(29.130554%, 65.982056%, 91.828918%)" offset="0.191406"/><stop stop-opacity="1" stop-color="rgb(29.580688%, 65.776062%, 91.838074%)" offset="0.195312"/><stop stop-opacity="1" stop-color="rgb(30.029297%, 65.568542%, 91.845703%)" offset="0.199219"/><stop stop-opacity="1" stop-color="rgb(30.479431%, 65.362549%, 91.854858%)" offset="0.203125"/><stop stop-opacity="1" stop-color="rgb(30.92804%, 65.155029%, 91.864014%)" offset="0.207031"/><stop stop-opacity="1" stop-color="rgb(31.378174%, 64.949036%, 91.873169%)" offset="0.210938"/><stop stop-opacity="1" stop-color="rgb(31.828308%, 64.743042%, 91.880798%)" offset="0.214844"/><stop stop-opacity="1" stop-color="rgb(32.278442%, 64.537048%, 91.889954%)" offset="0.21875"/><stop stop-opacity="1" stop-color="rgb(32.727051%, 64.329529%, 91.899109%)" offset="0.222656"/><stop stop-opacity="1" stop-color="rgb(33.177185%, 64.123535%, 91.908264%)" offset="0.226562"/><stop stop-opacity="1" stop-color="rgb(33.625793%, 63.917542%, 91.915894%)" offset="0.230469"/><stop stop-opacity="1" stop-color="rgb(34.075928%, 63.711548%, 91.925049%)" offset="0.234375"/><stop stop-opacity="1" stop-color="rgb(34.526062%, 63.504028%, 91.934204%)" offset="0.238281"/><stop stop-opacity="1" stop-color="rgb(34.976196%, 63.298035%, 91.943359%)" offset="0.242188"/><stop stop-opacity="1" stop-color="rgb(35.424805%, 63.090515%, 91.950989%)" offset="0.246094"/><stop stop-opacity="1" stop-color="rgb(35.874939%, 62.884521%, 91.960144%)" offset="0.25"/><stop stop-opacity="1" stop-color="rgb(36.323547%, 62.678528%, 91.969299%)" offset="0.253906"/><stop stop-opacity="1" stop-color="rgb(36.773682%, 62.472534%, 91.978455%)" offset="0.257812"/><stop stop-opacity="1" stop-color="rgb(37.223816%, 62.265015%, 91.986084%)" offset="0.261719"/><stop stop-opacity="1" stop-color="rgb(37.67395%, 62.059021%, 91.995239%)" offset="0.265625"/><stop stop-opacity="1" stop-color="rgb(38.122559%, 61.851501%, 92.004395%)" offset="0.269531"/><stop stop-opacity="1" stop-color="rgb(38.572693%, 61.645508%, 92.01355%)" offset="0.273438"/><stop stop-opacity="1" stop-color="rgb(39.021301%, 61.439514%, 92.021179%)" offset="0.277344"/><stop stop-opacity="1" stop-color="rgb(39.471436%, 61.233521%, 92.030334%)" offset="0.28125"/><stop stop-opacity="1" stop-color="rgb(39.920044%, 61.026001%, 92.03949%)" offset="0.285156"/><stop stop-opacity="1" stop-color="rgb(40.370178%, 60.820007%, 92.048645%)" offset="0.289062"/><stop stop-opacity="1" stop-color="rgb(40.820312%, 60.614014%, 92.056274%)" offset="0.292969"/><stop stop-opacity="1" stop-color="rgb(41.270447%, 60.40802%, 92.06543%)" offset="0.296875"/><stop stop-opacity="1" stop-color="rgb(41.719055%, 60.2005%, 92.074585%)" offset="0.300781"/><stop stop-opacity="1" stop-color="rgb(42.169189%, 59.994507%, 92.08374%)" offset="0.304688"/><stop stop-opacity="1" stop-color="rgb(42.617798%, 59.786987%, 92.09137%)" offset="0.308594"/><stop stop-opacity="1" stop-color="rgb(43.067932%, 59.580994%, 92.100525%)" offset="0.3125"/><stop stop-opacity="1" stop-color="rgb(43.518066%, 59.375%, 92.10968%)" offset="0.316406"/><stop stop-opacity="1" stop-color="rgb(43.968201%, 59.169006%, 92.118835%)" offset="0.320313"/><stop stop-opacity="1" stop-color="rgb(44.416809%, 58.961487%, 92.126465%)" offset="0.324219"/><stop stop-opacity="1" stop-color="rgb(44.866943%, 58.755493%, 92.13562%)" offset="0.328125"/><stop stop-opacity="1" stop-color="rgb(45.315552%, 58.547974%, 92.144775%)" offset="0.332031"/><stop stop-opacity="1" stop-color="rgb(45.765686%, 58.34198%, 92.153931%)" offset="0.335938"/><stop stop-opacity="1" stop-color="rgb(46.21582%, 58.135986%, 92.16156%)" offset="0.339844"/><stop stop-opacity="1" stop-color="rgb(46.665955%, 57.929993%, 92.170715%)" offset="0.34375"/><stop stop-opacity="1" stop-color="rgb(47.114563%, 57.722473%, 92.179871%)" offset="0.347656"/><stop stop-opacity="1" stop-color="rgb(47.564697%, 57.516479%, 92.189026%)" offset="0.351563"/><stop stop-opacity="1" stop-color="rgb(48.013306%, 57.30896%, 92.196655%)" offset="0.355469"/><stop stop-opacity="1" stop-color="rgb(48.46344%, 57.102966%, 92.205811%)" offset="0.359375"/><stop stop-opacity="1" stop-color="rgb(48.913574%, 56.896973%, 92.214966%)" offset="0.363281"/><stop stop-opacity="1" stop-color="rgb(49.363708%, 56.690979%, 92.224121%)" offset="0.367188"/><stop stop-opacity="1" stop-color="rgb(49.812317%, 56.483459%, 92.23175%)" offset="0.371094"/><stop stop-opacity="1" stop-color="rgb(50.262451%, 56.277466%, 92.240906%)" offset="0.375"/><stop stop-opacity="1" stop-color="rgb(50.71106%, 56.071472%, 92.250061%)" offset="0.378906"/><stop stop-opacity="1" stop-color="rgb(51.161194%, 55.865479%, 92.259216%)" offset="0.382812"/><stop stop-opacity="1" stop-color="rgb(51.611328%, 55.657959%, 92.266846%)" offset="0.386719"/><stop stop-opacity="1" stop-color="rgb(52.061462%, 55.451965%, 92.276001%)" offset="0.390625"/><stop stop-opacity="1" stop-color="rgb(52.510071%, 55.244446%, 92.285156%)" offset="0.394531"/><stop stop-opacity="1" stop-color="rgb(52.960205%, 55.038452%, 92.294312%)" offset="0.398438"/><stop stop-opacity="1" stop-color="rgb(53.408813%, 54.832458%, 92.301941%)" offset="0.402344"/><stop stop-opacity="1" stop-color="rgb(53.858948%, 54.626465%, 92.311096%)" offset="0.40625"/><stop stop-opacity="1" stop-color="rgb(54.309082%, 54.418945%, 92.320251%)" offset="0.410156"/><stop stop-opacity="1" stop-color="rgb(54.759216%, 54.212952%, 92.329407%)" offset="0.414062"/><stop stop-opacity="1" stop-color="rgb(55.207825%, 54.005432%, 92.337036%)" offset="0.417969"/><stop stop-opacity="1" stop-color="rgb(55.657959%, 53.799438%, 92.346191%)" offset="0.421875"/><stop stop-opacity="1" stop-color="rgb(56.106567%, 53.593445%, 92.355347%)" offset="0.425781"/><stop stop-opacity="1" stop-color="rgb(56.556702%, 53.387451%, 92.364502%)" offset="0.429688"/><stop stop-opacity="1" stop-color="rgb(57.006836%, 53.179932%, 92.372131%)" offset="0.433594"/><stop stop-opacity="1" stop-color="rgb(57.45697%, 52.973938%, 92.381287%)" offset="0.4375"/><stop stop-opacity="1" stop-color="rgb(57.905579%, 52.767944%, 92.390442%)" offset="0.441406"/><stop stop-opacity="1" stop-color="rgb(58.355713%, 52.561951%, 92.399597%)" offset="0.445313"/><stop stop-opacity="1" stop-color="rgb(58.804321%, 52.354431%, 92.407227%)" offset="0.449219"/><stop stop-opacity="1" stop-color="rgb(59.254456%, 52.148438%, 92.416382%)" offset="0.453125"/><stop stop-opacity="1" stop-color="rgb(59.70459%, 51.940918%, 92.425537%)" offset="0.457031"/><stop stop-opacity="1" stop-color="rgb(60.154724%, 51.734924%, 92.434692%)" offset="0.460938"/><stop stop-opacity="1" stop-color="rgb(60.603333%, 51.528931%, 92.442322%)" offset="0.464844"/><stop stop-opacity="1" stop-color="rgb(61.053467%, 51.322937%, 92.451477%)" offset="0.46875"/><stop stop-opacity="1" stop-color="rgb(61.502075%, 51.115417%, 92.460632%)" offset="0.472656"/><stop stop-opacity="1" stop-color="rgb(61.952209%, 50.909424%, 92.469788%)" offset="0.476563"/><stop stop-opacity="1" stop-color="rgb(62.402344%, 50.701904%, 92.477417%)" offset="0.480469"/><stop stop-opacity="1" stop-color="rgb(62.852478%, 50.495911%, 92.486572%)" offset="0.484375"/><stop stop-opacity="1" stop-color="rgb(63.241577%, 50.309753%, 92.382812%)" offset="0.488281"/><stop stop-opacity="1" stop-color="rgb(63.630676%, 50.123596%, 92.280579%)" offset="0.492188"/><stop stop-opacity="1" stop-color="rgb(63.864136%, 49.987793%, 91.889954%)" offset="0.496094"/><stop stop-opacity="1" stop-color="rgb(64.099121%, 49.85199%, 91.500854%)" offset="0.5"/><stop stop-opacity="1" stop-color="rgb(64.332581%, 49.716187%, 91.110229%)" offset="0.503906"/><stop stop-opacity="1" stop-color="rgb(64.567566%, 49.580383%, 90.72113%)" offset="0.507812"/><stop stop-opacity="1" stop-color="rgb(64.801025%, 49.44458%, 90.330505%)" offset="0.511719"/><stop stop-opacity="1" stop-color="rgb(65.036011%, 49.310303%, 89.941406%)" offset="0.515625"/><stop stop-opacity="1" stop-color="rgb(65.270996%, 49.1745%, 89.550781%)" offset="0.519531"/><stop stop-opacity="1" stop-color="rgb(65.505981%, 49.038696%, 89.161682%)" offset="0.523438"/><stop stop-opacity="1" stop-color="rgb(65.739441%, 48.902893%, 88.771057%)" offset="0.527344"/><stop stop-opacity="1" stop-color="rgb(65.974426%, 48.76709%, 88.381958%)" offset="0.53125"/><stop stop-opacity="1" stop-color="rgb(66.207886%, 48.631287%, 87.991333%)" offset="0.535156"/><stop stop-opacity="1" stop-color="rgb(66.442871%, 48.497009%, 87.602234%)" offset="0.539062"/><stop stop-opacity="1" stop-color="rgb(66.676331%, 48.361206%, 87.211609%)" offset="0.542969"/><stop stop-opacity="1" stop-color="rgb(66.911316%, 48.225403%, 86.82251%)" offset="0.546875"/><stop stop-opacity="1" stop-color="rgb(67.144775%, 48.0896%, 86.431885%)" offset="0.550781"/><stop stop-opacity="1" stop-color="rgb(67.379761%, 47.953796%, 86.042786%)" offset="0.554688"/><stop stop-opacity="1" stop-color="rgb(67.614746%, 47.817993%, 85.652161%)" offset="0.558594"/><stop stop-opacity="1" stop-color="rgb(67.849731%, 47.683716%, 85.263062%)" offset="0.5625"/><stop stop-opacity="1" stop-color="rgb(68.083191%, 47.547913%, 84.872437%)" offset="0.566406"/><stop stop-opacity="1" stop-color="rgb(68.318176%, 47.412109%, 84.483337%)" offset="0.570312"/><stop stop-opacity="1" stop-color="rgb(68.551636%, 47.276306%, 84.092712%)" offset="0.574219"/><stop stop-opacity="1" stop-color="rgb(68.786621%, 47.140503%, 83.703613%)" offset="0.578125"/><stop stop-opacity="1" stop-color="rgb(69.020081%, 47.0047%, 83.312988%)" offset="0.582031"/><stop stop-opacity="1" stop-color="rgb(69.255066%, 46.868896%, 82.923889%)" offset="0.585938"/><stop stop-opacity="1" stop-color="rgb(69.488525%, 46.733093%, 82.533264%)" offset="0.589844"/><stop stop-opacity="1" stop-color="rgb(69.723511%, 46.598816%, 82.144165%)" offset="0.59375"/><stop stop-opacity="1" stop-color="rgb(69.958496%, 46.463013%, 81.75354%)" offset="0.597656"/><stop stop-opacity="1" stop-color="rgb(70.193481%, 46.327209%, 81.364441%)" offset="0.601562"/><stop stop-opacity="1" stop-color="rgb(70.426941%, 46.191406%, 80.973816%)" offset="0.605469"/><stop stop-opacity="1" stop-color="rgb(70.661926%, 46.055603%, 80.584717%)" offset="0.609375"/><stop stop-opacity="1" stop-color="rgb(70.895386%, 45.9198%, 80.194092%)" offset="0.613281"/><stop stop-opacity="1" stop-color="rgb(71.130371%, 45.785522%, 79.804993%)" offset="0.617187"/><stop stop-opacity="1" stop-color="rgb(71.363831%, 45.649719%, 79.414368%)" offset="0.621094"/><stop stop-opacity="1" stop-color="rgb(71.598816%, 45.513916%, 79.025269%)" offset="0.625"/><stop stop-opacity="1" stop-color="rgb(71.832275%, 45.378113%, 78.634644%)" offset="0.628906"/><stop stop-opacity="1" stop-color="rgb(72.067261%, 45.24231%, 78.245544%)" offset="0.632812"/><stop stop-opacity="1" stop-color="rgb(72.302246%, 45.106506%, 77.854919%)" offset="0.636719"/><stop stop-opacity="1" stop-color="rgb(72.537231%, 44.972229%, 77.46582%)" offset="0.640625"/><stop stop-opacity="1" stop-color="rgb(72.770691%, 44.836426%, 77.075195%)" offset="0.644531"/><stop stop-opacity="1" stop-color="rgb(73.005676%, 44.700623%, 76.686096%)" offset="0.648437"/><stop stop-opacity="1" stop-color="rgb(73.239136%, 44.564819%, 76.295471%)" offset="0.652344"/><stop stop-opacity="1" stop-color="rgb(73.474121%, 44.429016%, 75.906372%)" offset="0.65625"/><stop stop-opacity="1" stop-color="rgb(73.707581%, 44.293213%, 75.515747%)" offset="0.660156"/><stop stop-opacity="1" stop-color="rgb(73.942566%, 44.158936%, 75.126648%)" offset="0.664062"/><stop stop-opacity="1" stop-color="rgb(74.176025%, 44.023132%, 74.736023%)" offset="0.667969"/><stop stop-opacity="1" stop-color="rgb(74.411011%, 43.887329%, 74.346924%)" offset="0.671875"/><stop stop-opacity="1" stop-color="rgb(74.645996%, 43.751526%, 73.956299%)" offset="0.675781"/><stop stop-opacity="1" stop-color="rgb(74.880981%, 43.615723%, 73.5672%)" offset="0.679688"/><stop stop-opacity="1" stop-color="rgb(75.114441%, 43.479919%, 73.176575%)" offset="0.683594"/><stop stop-opacity="1" stop-color="rgb(75.349426%, 43.344116%, 72.787476%)" offset="0.6875"/><stop stop-opacity="1" stop-color="rgb(75.582886%, 43.208313%, 72.396851%)" offset="0.691406"/><stop stop-opacity="1" stop-color="rgb(75.817871%, 43.074036%, 72.007751%)" offset="0.695312"/><stop stop-opacity="1" stop-color="rgb(76.051331%, 42.938232%, 71.617126%)" offset="0.699219"/><stop stop-opacity="1" stop-color="rgb(76.286316%, 42.802429%, 71.228027%)" offset="0.703125"/><stop stop-opacity="1" stop-color="rgb(76.519775%, 42.666626%, 70.837402%)" offset="0.707031"/><stop stop-opacity="1" stop-color="rgb(76.754761%, 42.530823%, 70.448303%)" offset="0.710938"/><stop stop-opacity="1" stop-color="rgb(76.989746%, 42.39502%, 70.057678%)" offset="0.714844"/><stop stop-opacity="1" stop-color="rgb(77.224731%, 42.260742%, 69.668579%)" offset="0.71875"/><stop stop-opacity="1" stop-color="rgb(77.458191%, 42.124939%, 69.277954%)" offset="0.722656"/><stop stop-opacity="1" stop-color="rgb(77.693176%, 41.989136%, 68.888855%)" offset="0.726562"/><stop stop-opacity="1" stop-color="rgb(77.926636%, 41.853333%, 68.49823%)" offset="0.730469"/><stop stop-opacity="1" stop-color="rgb(78.161621%, 41.717529%, 68.109131%)" offset="0.734375"/><stop stop-opacity="1" stop-color="rgb(78.395081%, 41.581726%, 67.718506%)" offset="0.738281"/><stop stop-opacity="1" stop-color="rgb(78.630066%, 41.447449%, 67.329407%)" offset="0.742188"/><stop stop-opacity="1" stop-color="rgb(78.863525%, 41.311646%, 66.938782%)" offset="0.746094"/><stop stop-opacity="1" stop-color="rgb(79.098511%, 41.175842%, 66.549683%)" offset="0.75"/><stop stop-opacity="1" stop-color="rgb(79.333496%, 41.040039%, 66.159058%)" offset="0.753906"/><stop stop-opacity="1" stop-color="rgb(79.568481%, 40.904236%, 65.769958%)" offset="0.757812"/><stop stop-opacity="1" stop-color="rgb(79.801941%, 40.768433%, 65.379333%)" offset="0.761719"/><stop stop-opacity="1" stop-color="rgb(80.036926%, 40.634155%, 64.990234%)" offset="0.765625"/><stop stop-opacity="1" stop-color="rgb(80.270386%, 40.498352%, 64.599609%)" offset="0.769531"/><stop stop-opacity="1" stop-color="rgb(80.505371%, 40.362549%, 64.21051%)" offset="0.773438"/><stop stop-opacity="1" stop-color="rgb(80.738831%, 40.226746%, 63.819885%)" offset="0.777344"/><stop stop-opacity="1" stop-color="rgb(80.973816%, 40.090942%, 63.430786%)" offset="0.78125"/><stop stop-opacity="1" stop-color="rgb(81.207275%, 39.955139%, 63.040161%)" offset="0.785156"/><stop stop-opacity="1" stop-color="rgb(81.442261%, 39.819336%, 62.651062%)" offset="0.789062"/><stop stop-opacity="1" stop-color="rgb(81.677246%, 39.683533%, 62.260437%)" offset="0.792969"/><stop stop-opacity="1" stop-color="rgb(81.912231%, 39.549255%, 61.871338%)" offset="0.796875"/><stop stop-opacity="1" stop-color="rgb(82.145691%, 39.413452%, 61.480713%)" offset="0.800781"/><stop stop-opacity="1" stop-color="rgb(82.380676%, 39.277649%, 61.091614%)" offset="0.804688"/><stop stop-opacity="1" stop-color="rgb(82.614136%, 39.141846%, 60.700989%)" offset="0.808594"/><stop stop-opacity="1" stop-color="rgb(82.849121%, 39.006042%, 60.31189%)" offset="0.8125"/><stop stop-opacity="1" stop-color="rgb(83.082581%, 38.870239%, 59.921265%)" offset="0.816406"/><stop stop-opacity="1" stop-color="rgb(83.317566%, 38.735962%, 59.532166%)" offset="0.820312"/><stop stop-opacity="1" stop-color="rgb(83.551025%, 38.600159%, 59.141541%)" offset="0.824219"/><stop stop-opacity="1" stop-color="rgb(83.786011%, 38.464355%, 58.752441%)" offset="0.828125"/><stop stop-opacity="1" stop-color="rgb(84.020996%, 38.328552%, 58.361816%)" offset="0.832031"/><stop stop-opacity="1" stop-color="rgb(84.255981%, 38.192749%, 57.972717%)" offset="0.835938"/><stop stop-opacity="1" stop-color="rgb(84.489441%, 38.056946%, 57.582092%)" offset="0.839844"/><stop stop-opacity="1" stop-color="rgb(84.724426%, 37.922668%, 57.192993%)" offset="0.84375"/><stop stop-opacity="1" stop-color="rgb(84.957886%, 37.786865%, 56.802368%)" offset="0.847656"/><stop stop-opacity="1" stop-color="rgb(85.192871%, 37.651062%, 56.413269%)" offset="0.851562"/><stop stop-opacity="1" stop-color="rgb(85.426331%, 37.515259%, 56.022644%)" offset="0.855469"/><stop stop-opacity="1" stop-color="rgb(85.661316%, 37.379456%, 55.633545%)" offset="0.859375"/><stop stop-opacity="1" stop-color="rgb(85.894775%, 37.243652%, 55.24292%)" offset="0.863281"/><stop stop-opacity="1" stop-color="rgb(86.129761%, 37.109375%, 54.853821%)" offset="0.867187"/><stop stop-opacity="1" stop-color="rgb(86.364746%, 36.973572%, 54.463196%)" offset="0.871094"/><stop stop-opacity="1" stop-color="rgb(86.599731%, 36.837769%, 54.074097%)" offset="0.875"/><stop stop-opacity="1" stop-color="rgb(86.833191%, 36.701965%, 53.683472%)" offset="0.878906"/><stop stop-opacity="1" stop-color="rgb(87.068176%, 36.566162%, 53.294373%)" offset="0.882812"/><stop stop-opacity="1" stop-color="rgb(87.301636%, 36.430359%, 52.903748%)" offset="0.886719"/><stop stop-opacity="1" stop-color="rgb(87.536621%, 36.294556%, 52.514648%)" offset="0.890625"/><stop stop-opacity="1" stop-color="rgb(87.770081%, 36.158752%, 52.124023%)" offset="0.894531"/><stop stop-opacity="1" stop-color="rgb(88.005066%, 36.024475%, 51.734924%)" offset="0.898438"/><stop stop-opacity="1" stop-color="rgb(88.238525%, 35.888672%, 51.344299%)" offset="0.902344"/><stop stop-opacity="1" stop-color="rgb(88.473511%, 35.752869%, 50.9552%)" offset="0.90625"/><stop stop-opacity="1" stop-color="rgb(88.708496%, 35.617065%, 50.564575%)" offset="0.910156"/><stop stop-opacity="1" stop-color="rgb(88.943481%, 35.481262%, 50.175476%)" offset="0.914062"/><stop stop-opacity="1" stop-color="rgb(89.176941%, 35.345459%, 49.784851%)" offset="0.917969"/><stop stop-opacity="1" stop-color="rgb(89.411926%, 35.211182%, 49.395752%)" offset="0.921875"/><stop stop-opacity="1" stop-color="rgb(89.645386%, 35.075378%, 49.005127%)" offset="0.925781"/><stop stop-opacity="1" stop-color="rgb(89.880371%, 34.939575%, 48.616028%)" offset="0.929688"/><stop stop-opacity="1" stop-color="rgb(90.113831%, 34.803772%, 48.225403%)" offset="0.933594"/><stop stop-opacity="1" stop-color="rgb(90.348816%, 34.667969%, 47.836304%)" offset="0.9375"/><stop stop-opacity="1" stop-color="rgb(90.582275%, 34.532166%, 47.445679%)" offset="0.941406"/><stop stop-opacity="1" stop-color="rgb(90.817261%, 34.397888%, 47.05658%)" offset="0.945312"/><stop stop-opacity="1" stop-color="rgb(91.052246%, 34.262085%, 46.665955%)" offset="0.949219"/><stop stop-opacity="1" stop-color="rgb(91.287231%, 34.126282%, 46.276855%)" offset="0.953125"/><stop stop-opacity="1" stop-color="rgb(91.520691%, 33.990479%, 45.88623%)" offset="0.957031"/><stop stop-opacity="1" stop-color="rgb(91.755676%, 33.854675%, 45.497131%)" offset="0.960938"/><stop stop-opacity="1" stop-color="rgb(91.989136%, 33.718872%, 45.106506%)" offset="0.964844"/><stop stop-opacity="1" stop-color="rgb(92.224121%, 33.583069%, 44.717407%)" offset="0.96875"/><stop stop-opacity="1" stop-color="rgb(92.457581%, 33.447266%, 44.326782%)" offset="0.972656"/><stop stop-opacity="1" stop-color="rgb(92.692566%, 33.312988%, 43.937683%)" offset="0.976562"/><stop stop-opacity="1" stop-color="rgb(92.926025%, 33.177185%, 43.547058%)" offset="0.980469"/><stop stop-opacity="1" stop-color="rgb(93.161011%, 33.041382%, 43.157959%)" offset="0.984375"/><stop stop-opacity="1" stop-color="rgb(93.395996%, 32.905579%, 42.767334%)" offset="0.988281"/><stop stop-opacity="1" stop-color="rgb(93.630981%, 32.769775%, 42.378235%)" offset="0.992188"/><stop stop-opacity="1" stop-color="rgb(93.864441%, 32.633972%, 41.98761%)" offset="0.996094"/><stop stop-opacity="1" stop-color="rgb(94.099426%, 32.499695%, 41.598511%)" offset="1"/></linearGradient></defs><g clip-path="url(#id1)"><path fill="#ffffff" d="M 0.484375 0 L 29.515625 0 L 29.515625 36.289062 L 0.484375 36.289062 Z M 0.484375 0 " fill-opacity="1" fill-rule="nonzero"/><path fill="#ffffff" d="M 0.484375 0 L 29.515625 0 L 29.515625 29.03125 L 0.484375 29.03125 Z M 0.484375 0 " fill-opacity="1" fill-rule="nonzero"/><path fill="#ffffff" d="M 0.484375 0 L 29.515625 0 L 29.515625 29.03125 L 0.484375 29.03125 Z M 0.484375 0 " fill-opacity="1" fill-rule="nonzero"/><path fill="#ffffff" d="M 0.484375 0 L 29.515625 0 L 29.515625 29.03125 L 0.484375 29.03125 Z M 0.484375 0 " fill-opacity="1" fill-rule="nonzero"/></g><g clip-path="url(#id2)"><g clip-path="url(#id3)"><path fill="url(#id4)" d="M 2.832031 2.347656 L 2.832031 27.023438 L 27.507812 27.023438 L 27.507812 2.347656 Z M 2.832031 2.347656 " fill-rule="nonzero"/></g></g></svg>