<?xml version="1.0" standalone="yes"?>
<svg xmlns="http://www.w3.org/2000/svg" width="40" height="40">
<path style="fill:#010101; stroke:none;" d="M0 0L0 40L40 40L40 0L0 0z"/>
<path style="fill:#5f9feb; stroke:none;" d="M9 5L9 11L16 14L16 3L9 5z"/>
<path style="fill:#a67dd9; stroke:none;" d="M16 3L16 14L22 14L22 11L27 11L27 5L16 3z"/>
<path style="fill:#31b4ea; stroke:none;" d="M8 5L8 11L9 11L8 5z"/>
<path style="fill:#db608e; stroke:none;" d="M27 5L27 11L38 11L38 5L27 5z"/>
<path style="fill:#a67dd9; stroke:none;" d="M24 20L16 20L16 23L25 23L25 24L16 24L16 27L27 27L25 17L25 16L27 13C22.999 14.4754 22.1795 16.1254 24 20z"/>
<path style="fill:#db608e; stroke:none;" d="M27 13L27 20C30.2086 17.6875 30.2086 15.3125 27 13z"/>
<path style="fill:#31b4ea; stroke:none;" d="M8 15L8 20L9 20L8 15z"/>
<path style="fill:#5f9feb; stroke:none;" d="M9 15L9 27L16 27L13 24L13 23L16 23L15 15L9 15z"/>
<path style="fill:#010101; stroke:none;" d="M25.6667 16.3333L26.3333 16.6667L25.6667 16.3333M10.6667 17.3333L11.3333 17.6667L10.6667 17.3333z"/>
<path style="fill:#31b4ea; stroke:none;" d="M9 36L6 27C9.40285 26.2708 8.98652 24.1942 9 21C0.892432 24.5479 2.7521 31.344 9 36z"/>
<path style="fill:#db608e; stroke:none;" d="M27 21L27 27L34 27L27 37C34.5735 36.156 37.0512 31.006 38 24L27 21z"/>
<path style="fill:#010101; stroke:none;" d="M13 23L13 24L25 24L13 23M6 27C9.81573 37.9603 30.685 38.6787 34 27L6 27z"/>
<path style="fill:#5f9feb; stroke:none;" d="M9 33C10.1964 36.6429 12.3926 37.2046 16 38L9 33z"/>
<path style="fill:#a67dd9; stroke:none;" d="M16 35L16 38L27 38L27 35L16 35z"/>
</svg>
