<svg xmlns="http://www.w3.org/2000/svg" xmlns:xlink="http://www.w3.org/1999/xlink" width="500" zoomAndPan="magnify" viewBox="0 0 375 374.999991" height="500" preserveAspectRatio="xMidYMid meet" version="1.0"><defs><clipPath id="id1"><path d="M 69.746094 69.746094 L 305.246094 69.746094 L 305.246094 305.246094 L 69.746094 305.246094 Z M 69.746094 69.746094 " clip-rule="nonzero"/></clipPath><clipPath id="id2"><path d="M 246.371094 194.855469 C 242.269531 194.84375 238.34375 195.679688 234.597656 197.359375 C 233.28125 196.167969 231.886719 195.074219 230.414062 194.082031 C 228.941406 193.085938 227.40625 192.199219 225.808594 191.425781 C 224.210938 190.648438 222.566406 189.988281 220.875 189.445312 C 219.183594 188.902344 217.464844 188.484375 215.714844 188.183594 C 213.960938 187.886719 212.199219 187.714844 210.421875 187.664062 C 208.648438 187.617188 206.878906 187.695312 205.113281 187.898438 C 203.347656 188.101562 201.609375 188.429688 199.890625 188.878906 C 198.171875 189.332031 196.496094 189.898438 194.855469 190.589844 C 192.535156 189.570312 190.136719 188.800781 187.65625 188.28125 C 185.179688 187.761719 182.671875 187.503906 180.136719 187.503906 C 177.605469 187.503906 175.097656 187.761719 172.617188 188.28125 C 170.140625 188.800781 167.738281 189.570312 165.417969 190.589844 C 163.78125 189.898438 162.105469 189.332031 160.386719 188.878906 C 158.667969 188.429688 156.925781 188.101562 155.164062 187.898438 C 153.398438 187.695312 151.628906 187.617188 149.851562 187.664062 C 148.078125 187.714844 146.3125 187.886719 144.5625 188.183594 C 142.8125 188.484375 141.089844 188.902344 139.398438 189.445312 C 137.707031 189.988281 136.0625 190.648438 134.464844 191.425781 C 132.867188 192.199219 131.332031 193.085938 129.863281 194.082031 C 128.390625 195.074219 126.996094 196.167969 125.679688 197.359375 C 121.933594 195.679688 118.007812 194.84375 113.902344 194.855469 C 112.289062 194.863281 110.683594 195 109.089844 195.269531 C 107.496094 195.539062 105.933594 195.9375 104.40625 196.464844 C 102.878906 196.992188 101.402344 197.640625 99.980469 198.410156 C 98.558594 199.179688 97.210938 200.058594 95.933594 201.050781 C 94.660156 202.042969 93.472656 203.132812 92.375 204.320312 C 91.277344 205.507812 90.285156 206.777344 89.398438 208.128906 C 88.511719 209.476562 87.738281 210.894531 87.085938 212.371094 C 86.429688 213.847656 85.902344 215.371094 85.496094 216.933594 L 69.746094 216.933594 L 69.746094 224.292969 C 69.75 225.617188 69.785156 226.941406 69.851562 228.265625 C 69.917969 229.585938 70.019531 230.90625 70.152344 232.226562 C 70.28125 233.542969 70.445312 234.855469 70.644531 236.164062 C 70.839844 237.476562 71.066406 238.777344 71.328125 240.078125 C 71.585938 241.375 71.878906 242.667969 72.203125 243.949219 C 72.527344 245.234375 72.878906 246.511719 73.265625 247.777344 C 73.652344 249.042969 74.070312 250.300781 74.515625 251.546875 C 74.964844 252.792969 75.441406 254.027344 75.949219 255.25 C 76.457031 256.472656 76.996094 257.683594 77.5625 258.878906 C 78.128906 260.078125 78.726562 261.257812 79.351562 262.425781 C 79.976562 263.59375 80.628906 264.746094 81.308594 265.878906 C 81.992188 267.015625 82.699219 268.132812 83.4375 269.234375 C 84.171875 270.335938 84.933594 271.417969 85.722656 272.480469 C 86.511719 273.542969 87.328125 274.585938 88.167969 275.609375 C 89.007812 276.632812 89.875 277.636719 90.761719 278.617188 C 91.652344 279.597656 92.566406 280.558594 93.5 281.492188 C 94.4375 282.429688 95.394531 283.34375 96.378906 284.234375 C 97.359375 285.121094 98.359375 285.988281 99.382812 286.828125 C 100.40625 287.667969 101.449219 288.480469 102.515625 289.269531 C 103.578125 290.058594 104.660156 290.824219 105.761719 291.558594 C 106.859375 292.296875 107.980469 293.003906 109.113281 293.6875 C 110.25 294.367188 111.402344 295.019531 112.570312 295.644531 C 113.734375 296.269531 114.917969 296.867188 116.113281 297.433594 C 117.3125 298 118.519531 298.539062 119.742188 299.046875 C 120.96875 299.554688 122.203125 300.03125 123.449219 300.480469 C 124.695312 300.925781 125.949219 301.34375 127.21875 301.730469 C 128.484375 302.113281 129.761719 302.46875 131.042969 302.792969 C 132.328125 303.117188 133.621094 303.40625 134.917969 303.667969 C 136.214844 303.929688 137.519531 304.15625 138.828125 304.351562 C 140.140625 304.546875 141.453125 304.710938 142.769531 304.84375 C 144.089844 304.976562 145.40625 305.074219 146.730469 305.144531 C 148.054688 305.210938 149.375 305.246094 150.699219 305.246094 L 224.292969 305.246094 C 225.621094 305.253906 226.945312 305.222656 228.269531 305.164062 C 229.59375 305.101562 230.917969 305.011719 232.238281 304.882812 C 233.558594 304.757812 234.875 304.601562 236.1875 304.410156 C 237.5 304.21875 238.808594 303.996094 240.109375 303.742188 C 241.410156 303.484375 242.703125 303.199219 243.992188 302.878906 C 245.277344 302.5625 246.558594 302.210938 247.828125 301.828125 C 249.097656 301.445312 250.355469 301.03125 251.605469 300.589844 C 252.855469 300.144531 254.09375 299.667969 255.320312 299.164062 C 256.546875 298.660156 257.757812 298.125 258.957031 297.558594 C 260.160156 296.992188 261.34375 296.398438 262.515625 295.777344 C 263.683594 295.152344 264.839844 294.5 265.976562 293.820312 C 267.117188 293.140625 268.234375 292.429688 269.339844 291.695312 C 270.441406 290.960938 271.527344 290.195312 272.59375 289.40625 C 273.660156 288.617188 274.703125 287.804688 275.730469 286.960938 C 276.753906 286.121094 277.761719 285.257812 278.742188 284.367188 C 279.726562 283.476562 280.6875 282.5625 281.625 281.625 C 282.5625 280.6875 283.476562 279.726562 284.367188 278.742188 C 285.257812 277.761719 286.121094 276.753906 286.960938 275.730469 C 287.804688 274.703125 288.617188 273.660156 289.40625 272.59375 C 290.195312 271.527344 290.960938 270.441406 291.695312 269.339844 C 292.429688 268.234375 293.140625 267.117188 293.820312 265.976562 C 294.5 264.839844 295.152344 263.683594 295.777344 262.515625 C 296.398438 261.34375 296.992188 260.160156 297.558594 258.957031 C 298.125 257.757812 298.660156 256.546875 299.164062 255.320312 C 299.667969 254.09375 300.144531 252.855469 300.589844 251.605469 C 301.03125 250.355469 301.445312 249.097656 301.828125 247.828125 C 302.210938 246.558594 302.5625 245.277344 302.878906 243.992188 C 303.199219 242.703125 303.484375 241.410156 303.742188 240.109375 C 303.996094 238.808594 304.21875 237.5 304.410156 236.1875 C 304.601562 234.875 304.757812 233.558594 304.882812 232.238281 C 305.011719 230.917969 305.101562 229.59375 305.164062 228.269531 C 305.222656 226.945312 305.253906 225.621094 305.246094 224.292969 L 305.246094 216.933594 L 274.78125 216.933594 C 274.375 215.371094 273.847656 213.847656 273.191406 212.371094 C 272.535156 210.894531 271.765625 209.476562 270.878906 208.128906 C 269.988281 206.777344 268.996094 205.507812 267.902344 204.320312 C 266.804688 203.132812 265.617188 202.042969 264.339844 201.050781 C 263.066406 200.058594 261.714844 199.179688 260.296875 198.410156 C 258.875 197.640625 257.398438 196.992188 255.871094 196.464844 C 254.34375 195.9375 252.78125 195.539062 251.1875 195.269531 C 249.59375 195 247.988281 194.863281 246.371094 194.855469 Z M 237.6875 212.519531 C 238.101562 212.210938 238.53125 211.925781 238.976562 211.664062 C 239.421875 211.402344 239.878906 211.164062 240.347656 210.949219 C 240.816406 210.734375 241.296875 210.546875 241.789062 210.382812 C 242.277344 210.21875 242.773438 210.082031 243.277344 209.96875 C 243.78125 209.859375 244.289062 209.773438 244.804688 209.714844 C 245.316406 209.65625 245.832031 209.625 246.347656 209.621094 C 246.863281 209.617188 247.378906 209.640625 247.890625 209.691406 C 248.40625 209.742188 248.914062 209.820312 249.421875 209.921875 C 249.925781 210.027344 250.425781 210.15625 250.917969 210.3125 C 251.410156 210.46875 251.890625 210.652344 252.363281 210.859375 C 252.835938 211.066406 253.296875 211.296875 253.746094 211.554688 C 254.195312 211.808594 254.628906 212.085938 255.046875 212.386719 C 255.464844 212.6875 255.867188 213.011719 256.253906 213.355469 C 256.640625 213.699219 257.003906 214.0625 257.351562 214.445312 C 257.699219 214.824219 258.027344 215.226562 258.332031 215.640625 C 258.636719 216.058594 258.917969 216.488281 259.179688 216.933594 L 231.652344 216.933594 Z M 133.039062 211.195312 C 133.445312 210.640625 133.875 210.105469 134.328125 209.59375 C 134.785156 209.078125 135.261719 208.585938 135.761719 208.113281 C 136.265625 207.644531 136.785156 207.199219 137.328125 206.773438 C 137.867188 206.351562 138.429688 205.957031 139.007812 205.585938 C 139.585938 205.214844 140.179688 204.871094 140.789062 204.554688 C 141.398438 204.238281 142.019531 203.949219 142.65625 203.691406 C 143.292969 203.433594 143.941406 203.203125 144.597656 203.003906 C 145.253906 202.804688 145.921875 202.636719 146.59375 202.5 C 147.265625 202.363281 147.945312 202.253906 148.625 202.179688 C 149.308594 202.105469 149.992188 202.058594 150.679688 202.046875 C 151.367188 202.035156 152.054688 202.054688 152.738281 202.105469 C 153.421875 202.15625 154.105469 202.238281 154.78125 202.351562 C 155.460938 202.464844 156.128906 202.609375 156.792969 202.785156 C 157.457031 202.960938 158.113281 203.164062 158.757812 203.402344 C 159.402344 203.636719 160.035156 203.902344 160.65625 204.195312 C 161.277344 204.488281 161.882812 204.808594 162.476562 205.160156 L 166.15625 207.367188 L 169.835938 205.160156 C 171.523438 204.21875 173.300781 203.503906 175.171875 203.019531 C 177.042969 202.535156 178.941406 202.289062 180.875 202.289062 C 182.804688 202.289062 184.707031 202.535156 186.578125 203.019531 C 188.445312 203.503906 190.226562 204.21875 191.914062 205.160156 L 195.59375 207.367188 L 199.273438 205.160156 C 200.441406 204.511719 201.65625 203.96875 202.921875 203.539062 C 204.1875 203.105469 205.480469 202.792969 206.800781 202.589844 C 208.121094 202.390625 209.449219 202.308594 210.785156 202.347656 C 212.121094 202.386719 213.441406 202.542969 214.75 202.816406 C 216.058594 203.09375 217.332031 203.480469 218.570312 203.984375 C 219.804688 204.488281 220.988281 205.097656 222.117188 205.8125 C 223.246094 206.527344 224.304688 207.335938 225.289062 208.242188 C 226.269531 209.144531 227.167969 210.128906 227.972656 211.195312 L 231.652344 216.933594 L 128.621094 216.933594 Z M 122.585938 212.519531 L 128.621094 216.933594 L 101.097656 216.933594 C 101.359375 216.488281 101.640625 216.058594 101.945312 215.640625 C 102.25 215.226562 102.578125 214.824219 102.925781 214.445312 C 103.269531 214.0625 103.636719 213.699219 104.023438 213.355469 C 104.40625 213.011719 104.808594 212.6875 105.230469 212.386719 C 105.648438 212.085938 106.082031 211.808594 106.53125 211.554688 C 106.980469 211.296875 107.441406 211.066406 107.914062 210.859375 C 108.386719 210.652344 108.867188 210.46875 109.359375 210.3125 C 109.851562 210.15625 110.351562 210.027344 110.855469 209.921875 C 111.363281 209.820312 111.871094 209.742188 112.386719 209.691406 C 112.898438 209.640625 113.414062 209.617188 113.929688 209.621094 C 114.445312 209.625 114.960938 209.65625 115.472656 209.714844 C 115.988281 209.773438 116.496094 209.859375 117 209.96875 C 117.503906 210.082031 118 210.21875 118.488281 210.382812 C 118.980469 210.546875 119.457031 210.734375 119.929688 210.949219 C 120.398438 211.164062 120.855469 211.402344 121.300781 211.664062 C 121.742188 211.925781 122.171875 212.210938 122.585938 212.519531 Z M 271.246094 271.394531 C 268.152344 274.449219 264.789062 277.175781 261.15625 279.566406 C 257.527344 281.960938 253.695312 283.980469 249.667969 285.621094 C 245.640625 287.261719 241.492188 288.496094 237.222656 289.320312 C 232.953125 290.148438 228.644531 290.550781 224.292969 290.527344 L 150.699219 290.527344 C 148.675781 290.542969 146.65625 290.460938 144.640625 290.289062 C 142.625 290.117188 140.621094 289.851562 138.628906 289.496094 C 136.636719 289.136719 134.664062 288.691406 132.710938 288.15625 C 130.761719 287.617188 128.839844 286.992188 126.945312 286.277344 C 125.050781 285.566406 123.191406 284.765625 121.371094 283.882812 C 119.550781 283 117.773438 282.035156 116.042969 280.988281 C 114.308594 279.941406 112.628906 278.816406 111 277.617188 C 109.371094 276.417969 107.800781 275.144531 106.285156 273.800781 C 104.773438 272.457031 103.328125 271.042969 101.941406 269.566406 C 100.558594 268.089844 99.246094 266.550781 98.003906 264.953125 C 96.761719 263.355469 95.59375 261.707031 94.503906 260 C 93.414062 258.296875 92.402344 256.546875 91.472656 254.75 C 90.542969 252.949219 89.695312 251.113281 88.933594 249.238281 C 88.171875 247.367188 87.496094 245.460938 86.910156 243.523438 C 86.320312 241.585938 85.824219 239.625 85.414062 237.644531 C 85.007812 235.660156 84.691406 233.664062 84.464844 231.652344 L 290.527344 231.652344 C 290.089844 235.367188 289.34375 239.015625 288.289062 242.601562 C 287.234375 246.1875 285.886719 249.660156 284.242188 253.015625 C 282.601562 256.375 280.691406 259.570312 278.507812 262.609375 C 276.328125 265.644531 273.90625 268.472656 271.246094 271.101562 Z M 132.300781 187.496094 C 132.90625 187.496094 133.507812 187.46875 134.105469 187.410156 C 134.707031 187.351562 135.300781 187.261719 135.890625 187.144531 C 136.484375 187.027344 137.066406 186.878906 137.644531 186.707031 C 138.21875 186.53125 138.785156 186.328125 139.34375 186.097656 C 139.898438 185.867188 140.445312 185.609375 140.976562 185.324219 C 141.507812 185.042969 142.023438 184.730469 142.523438 184.398438 C 143.023438 184.0625 143.507812 183.703125 143.972656 183.320312 C 144.441406 182.9375 144.886719 182.535156 145.3125 182.109375 C 145.738281 181.683594 146.140625 181.238281 146.523438 180.769531 C 146.90625 180.304688 147.265625 179.820312 147.601562 179.320312 C 147.933594 178.820312 148.246094 178.304688 148.527344 177.773438 C 148.8125 177.242188 149.070312 176.695312 149.300781 176.140625 C 149.53125 175.582031 149.734375 175.015625 149.910156 174.441406 C 150.082031 173.863281 150.230469 173.28125 150.347656 172.6875 C 150.464844 172.097656 150.554688 171.503906 150.613281 170.902344 C 150.671875 170.304688 150.699219 169.703125 150.699219 169.097656 C 150.699219 168.496094 150.671875 167.894531 150.613281 167.296875 C 150.554688 166.695312 150.464844 166.101562 150.347656 165.507812 C 150.230469 164.917969 150.082031 164.335938 149.910156 163.757812 C 149.734375 163.183594 149.53125 162.613281 149.300781 162.058594 C 149.070312 161.5 148.8125 160.957031 148.527344 160.425781 C 148.246094 159.894531 147.933594 159.378906 147.601562 158.878906 C 147.265625 158.375 146.90625 157.894531 146.523438 157.425781 C 146.140625 156.960938 145.738281 156.515625 145.3125 156.089844 C 144.886719 155.664062 144.441406 155.257812 143.972656 154.875 C 143.507812 154.496094 143.023438 154.136719 142.523438 153.800781 C 142.023438 153.464844 141.507812 153.15625 140.976562 152.875 C 140.445312 152.589844 139.898438 152.332031 139.34375 152.101562 C 138.785156 151.871094 138.21875 151.667969 137.644531 151.492188 C 137.066406 151.316406 136.484375 151.171875 135.890625 151.054688 C 135.300781 150.9375 134.707031 150.847656 134.105469 150.789062 C 133.507812 150.730469 132.90625 150.699219 132.300781 150.699219 L 117.582031 150.699219 C 116.980469 150.699219 116.378906 150.730469 115.78125 150.789062 C 115.179688 150.847656 114.585938 150.9375 113.992188 151.054688 C 113.402344 151.171875 112.820312 151.316406 112.242188 151.492188 C 111.667969 151.667969 111.097656 151.871094 110.542969 152.101562 C 109.984375 152.332031 109.441406 152.589844 108.910156 152.875 C 108.378906 153.15625 107.863281 153.464844 107.363281 153.800781 C 106.859375 154.136719 106.378906 154.496094 105.910156 154.875 C 105.445312 155.257812 105 155.664062 104.574219 156.089844 C 104.148438 156.515625 103.742188 156.960938 103.359375 157.425781 C 102.980469 157.894531 102.621094 158.375 102.285156 158.878906 C 101.949219 159.378906 101.640625 159.894531 101.359375 160.425781 C 101.074219 160.957031 100.816406 161.5 100.585938 162.058594 C 100.355469 162.613281 100.152344 163.183594 99.976562 163.757812 C 99.800781 164.335938 99.65625 164.917969 99.539062 165.507812 C 99.421875 166.101562 99.332031 166.695312 99.273438 167.296875 C 99.214844 167.894531 99.183594 168.496094 99.183594 169.097656 C 99.183594 169.703125 99.214844 170.304688 99.273438 170.902344 C 99.332031 171.503906 99.421875 172.097656 99.539062 172.6875 C 99.65625 173.28125 99.800781 173.863281 99.976562 174.441406 C 100.152344 175.015625 100.355469 175.582031 100.585938 176.140625 C 100.816406 176.695312 101.074219 177.242188 101.359375 177.773438 C 101.640625 178.304688 101.949219 178.820312 102.285156 179.320312 C 102.621094 179.820312 102.980469 180.304688 103.359375 180.769531 C 103.742188 181.238281 104.148438 181.683594 104.574219 182.109375 C 105 182.535156 105.445312 182.9375 105.910156 183.320312 C 106.378906 183.703125 106.859375 184.0625 107.363281 184.398438 C 107.863281 184.730469 108.378906 185.042969 108.910156 185.324219 C 109.441406 185.609375 109.984375 185.867188 110.542969 186.097656 C 111.097656 186.328125 111.667969 186.53125 112.242188 186.707031 C 112.820312 186.878906 113.402344 187.027344 113.992188 187.144531 C 114.585938 187.261719 115.179688 187.351562 115.78125 187.410156 C 116.378906 187.46875 116.980469 187.496094 117.582031 187.496094 Z M 113.902344 169.097656 C 113.902344 168.609375 113.996094 168.140625 114.183594 167.691406 C 114.371094 167.238281 114.636719 166.84375 114.980469 166.496094 C 115.328125 166.152344 115.722656 165.886719 116.175781 165.699219 C 116.625 165.511719 117.09375 165.417969 117.582031 165.417969 L 132.300781 165.417969 C 132.789062 165.417969 133.257812 165.511719 133.710938 165.699219 C 134.160156 165.886719 134.558594 166.152344 134.902344 166.496094 C 135.25 166.84375 135.515625 167.238281 135.703125 167.691406 C 135.886719 168.140625 135.980469 168.609375 135.980469 169.097656 C 135.980469 169.585938 135.886719 170.054688 135.703125 170.507812 C 135.515625 170.957031 135.25 171.355469 134.902344 171.699219 C 134.558594 172.046875 134.160156 172.3125 133.710938 172.5 C 133.257812 172.683594 132.789062 172.777344 132.300781 172.777344 L 117.582031 172.777344 C 117.09375 172.777344 116.625 172.683594 116.175781 172.5 C 115.722656 172.3125 115.328125 172.046875 114.980469 171.699219 C 114.636719 171.355469 114.371094 170.957031 114.183594 170.507812 C 113.996094 170.054688 113.902344 169.585938 113.902344 169.097656 Z M 220.613281 180.136719 L 235.332031 180.136719 C 235.9375 180.136719 236.539062 180.109375 237.136719 180.050781 C 237.738281 179.992188 238.332031 179.902344 238.921875 179.785156 C 239.515625 179.667969 240.097656 179.519531 240.675781 179.347656 C 241.25 179.171875 241.816406 178.96875 242.375 178.738281 C 242.929688 178.507812 243.476562 178.25 244.007812 177.964844 C 244.539062 177.683594 245.054688 177.371094 245.554688 177.039062 C 246.054688 176.703125 246.539062 176.34375 247.003906 175.960938 C 247.472656 175.578125 247.917969 175.175781 248.34375 174.75 C 248.769531 174.324219 249.171875 173.878906 249.554688 173.410156 C 249.9375 172.945312 250.296875 172.460938 250.632812 171.960938 C 250.964844 171.460938 251.273438 170.945312 251.558594 170.414062 C 251.84375 169.882812 252.101562 169.335938 252.332031 168.78125 C 252.5625 168.222656 252.765625 167.65625 252.941406 167.082031 C 253.113281 166.503906 253.261719 165.921875 253.378906 165.328125 C 253.496094 164.738281 253.585938 164.144531 253.644531 163.542969 C 253.703125 162.945312 253.730469 162.34375 253.730469 161.738281 C 253.730469 161.136719 253.703125 160.535156 253.644531 159.9375 C 253.585938 159.335938 253.496094 158.742188 253.378906 158.148438 C 253.261719 157.558594 253.113281 156.976562 252.941406 156.398438 C 252.765625 155.824219 252.5625 155.253906 252.332031 154.699219 C 252.101562 154.140625 251.84375 153.597656 251.558594 153.066406 C 251.273438 152.535156 250.964844 152.019531 250.632812 151.519531 C 250.296875 151.015625 249.9375 150.535156 249.554688 150.066406 C 249.171875 149.601562 248.769531 149.15625 248.34375 148.730469 C 247.917969 148.304688 247.472656 147.898438 247.003906 147.515625 C 246.539062 147.136719 246.054688 146.777344 245.554688 146.441406 C 245.054688 146.105469 244.539062 145.796875 244.007812 145.515625 C 243.476562 145.230469 242.929688 144.972656 242.375 144.742188 C 241.816406 144.511719 241.25 144.308594 240.675781 144.132812 C 240.097656 143.957031 239.515625 143.8125 238.921875 143.695312 C 238.332031 143.578125 237.738281 143.488281 237.136719 143.429688 C 236.539062 143.371094 235.9375 143.339844 235.332031 143.339844 L 220.613281 143.339844 C 220.011719 143.339844 219.410156 143.371094 218.8125 143.429688 C 218.210938 143.488281 217.617188 143.578125 217.023438 143.695312 C 216.433594 143.8125 215.851562 143.957031 215.273438 144.132812 C 214.699219 144.308594 214.128906 144.511719 213.574219 144.742188 C 213.015625 144.972656 212.472656 145.230469 211.941406 145.515625 C 211.410156 145.796875 210.894531 146.105469 210.394531 146.441406 C 209.890625 146.777344 209.410156 147.136719 208.941406 147.515625 C 208.476562 147.898438 208.03125 148.304688 207.605469 148.730469 C 207.179688 149.15625 206.773438 149.601562 206.390625 150.066406 C 206.011719 150.535156 205.652344 151.015625 205.316406 151.519531 C 204.980469 152.019531 204.671875 152.535156 204.390625 153.066406 C 204.105469 153.597656 203.847656 154.140625 203.617188 154.699219 C 203.386719 155.253906 203.183594 155.824219 203.007812 156.398438 C 202.832031 156.976562 202.6875 157.558594 202.570312 158.148438 C 202.453125 158.742188 202.363281 159.335938 202.304688 159.9375 C 202.246094 160.535156 202.214844 161.136719 202.214844 161.738281 C 202.214844 162.34375 202.246094 162.945312 202.304688 163.542969 C 202.363281 164.144531 202.453125 164.738281 202.570312 165.328125 C 202.6875 165.921875 202.832031 166.503906 203.007812 167.082031 C 203.183594 167.65625 203.386719 168.222656 203.617188 168.78125 C 203.847656 169.335938 204.105469 169.882812 204.390625 170.414062 C 204.671875 170.945312 204.980469 171.460938 205.316406 171.960938 C 205.652344 172.460938 206.011719 172.945312 206.390625 173.410156 C 206.773438 173.878906 207.179688 174.324219 207.605469 174.75 C 208.03125 175.175781 208.476562 175.578125 208.941406 175.960938 C 209.410156 176.34375 209.890625 176.703125 210.394531 177.039062 C 210.894531 177.371094 211.410156 177.683594 211.941406 177.964844 C 212.472656 178.25 213.015625 178.507812 213.574219 178.738281 C 214.128906 178.96875 214.699219 179.171875 215.273438 179.347656 C 215.851562 179.519531 216.433594 179.667969 217.023438 179.785156 C 217.617188 179.902344 218.210938 179.992188 218.8125 180.050781 C 219.410156 180.109375 220.011719 180.136719 220.613281 180.136719 Z M 220.613281 158.058594 L 235.332031 158.058594 C 235.820312 158.058594 236.289062 158.152344 236.742188 158.339844 C 237.191406 158.527344 237.589844 158.792969 237.933594 159.136719 C 238.28125 159.484375 238.546875 159.878906 238.734375 160.332031 C 238.917969 160.78125 239.011719 161.25 239.011719 161.738281 C 239.011719 162.226562 238.917969 162.695312 238.734375 163.148438 C 238.546875 163.597656 238.28125 163.996094 237.933594 164.339844 C 237.589844 164.6875 237.191406 164.953125 236.742188 165.140625 C 236.289062 165.324219 235.820312 165.417969 235.332031 165.417969 L 220.613281 165.417969 C 220.125 165.417969 219.65625 165.324219 219.207031 165.140625 C 218.753906 164.953125 218.359375 164.6875 218.011719 164.339844 C 217.667969 163.996094 217.402344 163.597656 217.214844 163.148438 C 217.027344 162.695312 216.933594 162.226562 216.933594 161.738281 C 216.933594 161.25 217.027344 160.78125 217.214844 160.332031 C 217.402344 159.878906 217.667969 159.484375 218.011719 159.136719 C 218.359375 158.792969 218.753906 158.527344 219.207031 158.339844 C 219.65625 158.152344 220.125 158.058594 220.613281 158.058594 Z M 194.855469 69.746094 L 143.339844 69.746094 L 143.339844 84.464844 L 106.542969 84.464844 L 106.542969 99.183594 L 143.339844 99.183594 L 143.339844 106.542969 L 106.542969 106.542969 L 106.542969 121.261719 L 143.339844 121.261719 L 143.339844 143.339844 L 194.855469 143.339844 L 194.855469 121.261719 L 305.246094 121.261719 L 305.246094 106.542969 L 194.855469 106.542969 L 194.855469 99.183594 L 305.246094 99.183594 L 305.246094 84.464844 L 194.855469 84.464844 Z M 180.136719 84.464844 L 180.136719 99.183594 C 173.550781 93.621094 166.191406 89.402344 158.058594 86.527344 L 158.058594 84.464844 Z M 158.058594 102.421875 C 160.703125 103.628906 163.253906 105.003906 165.714844 106.542969 L 158.058594 106.542969 Z M 158.058594 128.621094 L 158.058594 121.261719 L 179.402344 121.261719 C 179.402344 121.261719 179.402344 122.292969 179.402344 122.882812 L 179.402344 128.621094 Z M 158.058594 128.621094 " clip-rule="nonzero"/></clipPath><linearGradient x1="0.0000000335526" gradientTransform="matrix(14.71875, 0, 0, 14.71875, 69.747554, 69.747558)" y1="8" x2="15.999998" gradientUnits="userSpaceOnUse" y2="8" id="id3"><stop stop-opacity="1" stop-color="rgb(7.099915%, 76.098633%, 91.398621%)" offset="0"/><stop stop-opacity="1" stop-color="rgb(7.548523%, 75.892639%, 91.407776%)" offset="0.00390625"/><stop stop-opacity="1" stop-color="rgb(7.998657%, 75.686646%, 91.416931%)" offset="0.0078125"/><stop stop-opacity="1" stop-color="rgb(8.447266%, 75.479126%, 91.424561%)" offset="0.0117188"/><stop stop-opacity="1" stop-color="rgb(8.8974%, 75.273132%, 91.433716%)" offset="0.015625"/><stop stop-opacity="1" stop-color="rgb(9.347534%, 75.067139%, 91.442871%)" offset="0.0195312"/><stop stop-opacity="1" stop-color="rgb(9.797668%, 74.861145%, 91.452026%)" offset="0.0234375"/><stop stop-opacity="1" stop-color="rgb(10.246277%, 74.653625%, 91.459656%)" offset="0.0273438"/><stop stop-opacity="1" stop-color="rgb(10.696411%, 74.447632%, 91.468811%)" offset="0.03125"/><stop stop-opacity="1" stop-color="rgb(11.14502%, 74.240112%, 91.477966%)" offset="0.0351562"/><stop stop-opacity="1" stop-color="rgb(11.595154%, 74.034119%, 91.487122%)" offset="0.0390625"/><stop stop-opacity="1" stop-color="rgb(12.043762%, 73.828125%, 91.494751%)" offset="0.0429687"/><stop stop-opacity="1" stop-color="rgb(12.493896%, 73.622131%, 91.503906%)" offset="0.046875"/><stop stop-opacity="1" stop-color="rgb(12.944031%, 73.414612%, 91.513062%)" offset="0.0507813"/><stop stop-opacity="1" stop-color="rgb(13.394165%, 73.208618%, 91.522217%)" offset="0.0546875"/><stop stop-opacity="1" stop-color="rgb(13.842773%, 73.001099%, 91.529846%)" offset="0.0585938"/><stop stop-opacity="1" stop-color="rgb(14.292908%, 72.795105%, 91.539001%)" offset="0.0625"/><stop stop-opacity="1" stop-color="rgb(14.741516%, 72.589111%, 91.548157%)" offset="0.0664062"/><stop stop-opacity="1" stop-color="rgb(15.19165%, 72.383118%, 91.557312%)" offset="0.0703125"/><stop stop-opacity="1" stop-color="rgb(15.641785%, 72.175598%, 91.564941%)" offset="0.0742188"/><stop stop-opacity="1" stop-color="rgb(16.091919%, 71.969604%, 91.574097%)" offset="0.078125"/><stop stop-opacity="1" stop-color="rgb(16.540527%, 71.762085%, 91.583252%)" offset="0.0820312"/><stop stop-opacity="1" stop-color="rgb(16.990662%, 71.556091%, 91.592407%)" offset="0.0859375"/><stop stop-opacity="1" stop-color="rgb(17.43927%, 71.350098%, 91.600037%)" offset="0.0898437"/><stop stop-opacity="1" stop-color="rgb(17.889404%, 71.144104%, 91.609192%)" offset="0.09375"/><stop stop-opacity="1" stop-color="rgb(18.339539%, 70.936584%, 91.618347%)" offset="0.0976563"/><stop stop-opacity="1" stop-color="rgb(18.789673%, 70.730591%, 91.627502%)" offset="0.101563"/><stop stop-opacity="1" stop-color="rgb(19.238281%, 70.524597%, 91.635132%)" offset="0.105469"/><stop stop-opacity="1" stop-color="rgb(19.688416%, 70.318604%, 91.644287%)" offset="0.109375"/><stop stop-opacity="1" stop-color="rgb(20.137024%, 70.111084%, 91.653442%)" offset="0.113281"/><stop stop-opacity="1" stop-color="rgb(20.587158%, 69.90509%, 91.662598%)" offset="0.117188"/><stop stop-opacity="1" stop-color="rgb(21.037292%, 69.697571%, 91.670227%)" offset="0.121094"/><stop stop-opacity="1" stop-color="rgb(21.487427%, 69.491577%, 91.679382%)" offset="0.125"/><stop stop-opacity="1" stop-color="rgb(21.936035%, 69.285583%, 91.688538%)" offset="0.128906"/><stop stop-opacity="1" stop-color="rgb(22.386169%, 69.07959%, 91.697693%)" offset="0.132812"/><stop stop-opacity="1" stop-color="rgb(22.834778%, 68.87207%, 91.705322%)" offset="0.136719"/><stop stop-opacity="1" stop-color="rgb(23.284912%, 68.666077%, 91.714478%)" offset="0.140625"/><stop stop-opacity="1" stop-color="rgb(23.735046%, 68.458557%, 91.723633%)" offset="0.144531"/><stop stop-opacity="1" stop-color="rgb(24.185181%, 68.252563%, 91.732788%)" offset="0.148438"/><stop stop-opacity="1" stop-color="rgb(24.633789%, 68.04657%, 91.740417%)" offset="0.152344"/><stop stop-opacity="1" stop-color="rgb(25.083923%, 67.840576%, 91.749573%)" offset="0.15625"/><stop stop-opacity="1" stop-color="rgb(25.532532%, 67.633057%, 91.758728%)" offset="0.160156"/><stop stop-opacity="1" stop-color="rgb(25.982666%, 67.427063%, 91.767883%)" offset="0.164062"/><stop stop-opacity="1" stop-color="rgb(26.4328%, 67.221069%, 91.775513%)" offset="0.167969"/><stop stop-opacity="1" stop-color="rgb(26.882935%, 67.015076%, 91.784668%)" offset="0.171875"/><stop stop-opacity="1" stop-color="rgb(27.331543%, 66.807556%, 91.793823%)" offset="0.175781"/><stop stop-opacity="1" stop-color="rgb(27.781677%, 66.601562%, 91.802979%)" offset="0.179687"/><stop stop-opacity="1" stop-color="rgb(28.230286%, 66.394043%, 91.810608%)" offset="0.183594"/><stop stop-opacity="1" stop-color="rgb(28.68042%, 66.188049%, 91.819763%)" offset="0.1875"/><stop stop-opacity="1" stop-color="rgb(29.130554%, 65.982056%, 91.828918%)" offset="0.191406"/><stop stop-opacity="1" stop-color="rgb(29.580688%, 65.776062%, 91.838074%)" offset="0.195313"/><stop stop-opacity="1" stop-color="rgb(30.029297%, 65.568542%, 91.845703%)" offset="0.199219"/><stop stop-opacity="1" stop-color="rgb(30.479431%, 65.362549%, 91.854858%)" offset="0.203125"/><stop stop-opacity="1" stop-color="rgb(30.92804%, 65.155029%, 91.864014%)" offset="0.207031"/><stop stop-opacity="1" stop-color="rgb(31.378174%, 64.949036%, 91.873169%)" offset="0.210938"/><stop stop-opacity="1" stop-color="rgb(31.828308%, 64.743042%, 91.880798%)" offset="0.214844"/><stop stop-opacity="1" stop-color="rgb(32.278442%, 64.537048%, 91.889954%)" offset="0.21875"/><stop stop-opacity="1" stop-color="rgb(32.727051%, 64.329529%, 91.899109%)" offset="0.222656"/><stop stop-opacity="1" stop-color="rgb(33.177185%, 64.123535%, 91.908264%)" offset="0.226562"/><stop stop-opacity="1" stop-color="rgb(33.625793%, 63.917542%, 91.915894%)" offset="0.230469"/><stop stop-opacity="1" stop-color="rgb(34.075928%, 63.711548%, 91.925049%)" offset="0.234375"/><stop stop-opacity="1" stop-color="rgb(34.526062%, 63.504028%, 91.934204%)" offset="0.238281"/><stop stop-opacity="1" stop-color="rgb(34.976196%, 63.298035%, 91.943359%)" offset="0.242188"/><stop stop-opacity="1" stop-color="rgb(35.424805%, 63.090515%, 91.950989%)" offset="0.246094"/><stop stop-opacity="1" stop-color="rgb(35.874939%, 62.884521%, 91.960144%)" offset="0.25"/><stop stop-opacity="1" stop-color="rgb(36.323547%, 62.678528%, 91.969299%)" offset="0.253906"/><stop stop-opacity="1" stop-color="rgb(36.773682%, 62.472534%, 91.978455%)" offset="0.257812"/><stop stop-opacity="1" stop-color="rgb(37.223816%, 62.265015%, 91.986084%)" offset="0.261719"/><stop stop-opacity="1" stop-color="rgb(37.67395%, 62.059021%, 91.995239%)" offset="0.265625"/><stop stop-opacity="1" stop-color="rgb(38.122559%, 61.851501%, 92.004395%)" offset="0.269531"/><stop stop-opacity="1" stop-color="rgb(38.572693%, 61.645508%, 92.01355%)" offset="0.273438"/><stop stop-opacity="1" stop-color="rgb(39.021301%, 61.439514%, 92.021179%)" offset="0.277344"/><stop stop-opacity="1" stop-color="rgb(39.471436%, 61.233521%, 92.030334%)" offset="0.28125"/><stop stop-opacity="1" stop-color="rgb(39.920044%, 61.026001%, 92.03949%)" offset="0.285156"/><stop stop-opacity="1" stop-color="rgb(40.370178%, 60.820007%, 92.048645%)" offset="0.289062"/><stop stop-opacity="1" stop-color="rgb(40.820312%, 60.614014%, 92.056274%)" offset="0.292969"/><stop stop-opacity="1" stop-color="rgb(41.270447%, 60.40802%, 92.06543%)" offset="0.296875"/><stop stop-opacity="1" stop-color="rgb(41.719055%, 60.2005%, 92.074585%)" offset="0.300781"/><stop stop-opacity="1" stop-color="rgb(42.169189%, 59.994507%, 92.08374%)" offset="0.304688"/><stop stop-opacity="1" stop-color="rgb(42.617798%, 59.786987%, 92.09137%)" offset="0.308594"/><stop stop-opacity="1" stop-color="rgb(43.067932%, 59.580994%, 92.100525%)" offset="0.3125"/><stop stop-opacity="1" stop-color="rgb(43.518066%, 59.375%, 92.10968%)" offset="0.316406"/><stop stop-opacity="1" stop-color="rgb(43.968201%, 59.169006%, 92.118835%)" offset="0.320312"/><stop stop-opacity="1" stop-color="rgb(44.416809%, 58.961487%, 92.126465%)" offset="0.324219"/><stop stop-opacity="1" stop-color="rgb(44.866943%, 58.755493%, 92.13562%)" offset="0.328125"/><stop stop-opacity="1" stop-color="rgb(45.315552%, 58.547974%, 92.144775%)" offset="0.332031"/><stop stop-opacity="1" stop-color="rgb(45.765686%, 58.34198%, 92.153931%)" offset="0.335937"/><stop stop-opacity="1" stop-color="rgb(46.21582%, 58.135986%, 92.16156%)" offset="0.339844"/><stop stop-opacity="1" stop-color="rgb(46.665955%, 57.929993%, 92.170715%)" offset="0.34375"/><stop stop-opacity="1" stop-color="rgb(47.114563%, 57.722473%, 92.179871%)" offset="0.347656"/><stop stop-opacity="1" stop-color="rgb(47.564697%, 57.516479%, 92.189026%)" offset="0.351562"/><stop stop-opacity="1" stop-color="rgb(48.013306%, 57.30896%, 92.196655%)" offset="0.355469"/><stop stop-opacity="1" stop-color="rgb(48.46344%, 57.102966%, 92.205811%)" offset="0.359375"/><stop stop-opacity="1" stop-color="rgb(48.913574%, 56.896973%, 92.214966%)" offset="0.363281"/><stop stop-opacity="1" stop-color="rgb(49.363708%, 56.690979%, 92.224121%)" offset="0.367187"/><stop stop-opacity="1" stop-color="rgb(49.812317%, 56.483459%, 92.23175%)" offset="0.371094"/><stop stop-opacity="1" stop-color="rgb(50.262451%, 56.277466%, 92.240906%)" offset="0.375"/><stop stop-opacity="1" stop-color="rgb(50.71106%, 56.071472%, 92.250061%)" offset="0.378906"/><stop stop-opacity="1" stop-color="rgb(51.161194%, 55.865479%, 92.259216%)" offset="0.382813"/><stop stop-opacity="1" stop-color="rgb(51.611328%, 55.657959%, 92.266846%)" offset="0.386719"/><stop stop-opacity="1" stop-color="rgb(52.061462%, 55.451965%, 92.276001%)" offset="0.390625"/><stop stop-opacity="1" stop-color="rgb(52.510071%, 55.244446%, 92.285156%)" offset="0.394531"/><stop stop-opacity="1" stop-color="rgb(52.960205%, 55.038452%, 92.294312%)" offset="0.398438"/><stop stop-opacity="1" stop-color="rgb(53.408813%, 54.832458%, 92.301941%)" offset="0.402344"/><stop stop-opacity="1" stop-color="rgb(53.858948%, 54.626465%, 92.311096%)" offset="0.40625"/><stop stop-opacity="1" stop-color="rgb(54.309082%, 54.418945%, 92.320251%)" offset="0.410156"/><stop stop-opacity="1" stop-color="rgb(54.759216%, 54.212952%, 92.329407%)" offset="0.414063"/><stop stop-opacity="1" stop-color="rgb(55.207825%, 54.005432%, 92.337036%)" offset="0.417969"/><stop stop-opacity="1" stop-color="rgb(55.657959%, 53.799438%, 92.346191%)" offset="0.421875"/><stop stop-opacity="1" stop-color="rgb(56.106567%, 53.593445%, 92.355347%)" offset="0.425781"/><stop stop-opacity="1" stop-color="rgb(56.556702%, 53.387451%, 92.364502%)" offset="0.429688"/><stop stop-opacity="1" stop-color="rgb(57.006836%, 53.179932%, 92.372131%)" offset="0.433594"/><stop stop-opacity="1" stop-color="rgb(57.45697%, 52.973938%, 92.381287%)" offset="0.4375"/><stop stop-opacity="1" stop-color="rgb(57.905579%, 52.767944%, 92.390442%)" offset="0.441406"/><stop stop-opacity="1" stop-color="rgb(58.355713%, 52.561951%, 92.399597%)" offset="0.445312"/><stop stop-opacity="1" stop-color="rgb(58.804321%, 52.354431%, 92.407227%)" offset="0.449219"/><stop stop-opacity="1" stop-color="rgb(59.254456%, 52.148438%, 92.416382%)" offset="0.453125"/><stop stop-opacity="1" stop-color="rgb(59.70459%, 51.940918%, 92.425537%)" offset="0.457031"/><stop stop-opacity="1" stop-color="rgb(60.154724%, 51.734924%, 92.434692%)" offset="0.460938"/><stop stop-opacity="1" stop-color="rgb(60.603333%, 51.528931%, 92.442322%)" offset="0.464844"/><stop stop-opacity="1" stop-color="rgb(61.053467%, 51.322937%, 92.451477%)" offset="0.46875"/><stop stop-opacity="1" stop-color="rgb(61.502075%, 51.115417%, 92.460632%)" offset="0.472656"/><stop stop-opacity="1" stop-color="rgb(61.952209%, 50.909424%, 92.469788%)" offset="0.476562"/><stop stop-opacity="1" stop-color="rgb(62.402344%, 50.701904%, 92.477417%)" offset="0.480469"/><stop stop-opacity="1" stop-color="rgb(62.852478%, 50.495911%, 92.486572%)" offset="0.484375"/><stop stop-opacity="1" stop-color="rgb(63.241577%, 50.309753%, 92.382812%)" offset="0.488281"/><stop stop-opacity="1" stop-color="rgb(63.630676%, 50.123596%, 92.280579%)" offset="0.492188"/><stop stop-opacity="1" stop-color="rgb(63.864136%, 49.987793%, 91.889954%)" offset="0.496094"/><stop stop-opacity="1" stop-color="rgb(64.099121%, 49.85199%, 91.500854%)" offset="0.5"/><stop stop-opacity="1" stop-color="rgb(64.332581%, 49.716187%, 91.110229%)" offset="0.503906"/><stop stop-opacity="1" stop-color="rgb(64.567566%, 49.580383%, 90.72113%)" offset="0.507812"/><stop stop-opacity="1" stop-color="rgb(64.801025%, 49.44458%, 90.330505%)" offset="0.511719"/><stop stop-opacity="1" stop-color="rgb(65.036011%, 49.310303%, 89.941406%)" offset="0.515625"/><stop stop-opacity="1" stop-color="rgb(65.270996%, 49.1745%, 89.550781%)" offset="0.519531"/><stop stop-opacity="1" stop-color="rgb(65.505981%, 49.038696%, 89.161682%)" offset="0.523438"/><stop stop-opacity="1" stop-color="rgb(65.739441%, 48.902893%, 88.771057%)" offset="0.527344"/><stop stop-opacity="1" stop-color="rgb(65.974426%, 48.76709%, 88.381958%)" offset="0.53125"/><stop stop-opacity="1" stop-color="rgb(66.207886%, 48.631287%, 87.991333%)" offset="0.535156"/><stop stop-opacity="1" stop-color="rgb(66.442871%, 48.497009%, 87.602234%)" offset="0.539062"/><stop stop-opacity="1" stop-color="rgb(66.676331%, 48.361206%, 87.211609%)" offset="0.542969"/><stop stop-opacity="1" stop-color="rgb(66.911316%, 48.225403%, 86.82251%)" offset="0.546875"/><stop stop-opacity="1" stop-color="rgb(67.144775%, 48.0896%, 86.431885%)" offset="0.550781"/><stop stop-opacity="1" stop-color="rgb(67.379761%, 47.953796%, 86.042786%)" offset="0.554688"/><stop stop-opacity="1" stop-color="rgb(67.614746%, 47.817993%, 85.652161%)" offset="0.558594"/><stop stop-opacity="1" stop-color="rgb(67.849731%, 47.683716%, 85.263062%)" offset="0.5625"/><stop stop-opacity="1" stop-color="rgb(68.083191%, 47.547913%, 84.872437%)" offset="0.566406"/><stop stop-opacity="1" stop-color="rgb(68.318176%, 47.412109%, 84.483337%)" offset="0.570312"/><stop stop-opacity="1" stop-color="rgb(68.551636%, 47.276306%, 84.092712%)" offset="0.574219"/><stop stop-opacity="1" stop-color="rgb(68.786621%, 47.140503%, 83.703613%)" offset="0.578125"/><stop stop-opacity="1" stop-color="rgb(69.020081%, 47.0047%, 83.312988%)" offset="0.582031"/><stop stop-opacity="1" stop-color="rgb(69.255066%, 46.868896%, 82.923889%)" offset="0.585938"/><stop stop-opacity="1" stop-color="rgb(69.488525%, 46.733093%, 82.533264%)" offset="0.589844"/><stop stop-opacity="1" stop-color="rgb(69.723511%, 46.598816%, 82.144165%)" offset="0.59375"/><stop stop-opacity="1" stop-color="rgb(69.958496%, 46.463013%, 81.75354%)" offset="0.597656"/><stop stop-opacity="1" stop-color="rgb(70.193481%, 46.327209%, 81.364441%)" offset="0.601562"/><stop stop-opacity="1" stop-color="rgb(70.426941%, 46.191406%, 80.973816%)" offset="0.605469"/><stop stop-opacity="1" stop-color="rgb(70.661926%, 46.055603%, 80.584717%)" offset="0.609375"/><stop stop-opacity="1" stop-color="rgb(70.895386%, 45.9198%, 80.194092%)" offset="0.613281"/><stop stop-opacity="1" stop-color="rgb(71.130371%, 45.785522%, 79.804993%)" offset="0.617188"/><stop stop-opacity="1" stop-color="rgb(71.363831%, 45.649719%, 79.414368%)" offset="0.621094"/><stop stop-opacity="1" stop-color="rgb(71.598816%, 45.513916%, 79.025269%)" offset="0.625"/><stop stop-opacity="1" stop-color="rgb(71.832275%, 45.378113%, 78.634644%)" offset="0.628906"/><stop stop-opacity="1" stop-color="rgb(72.067261%, 45.24231%, 78.245544%)" offset="0.632812"/><stop stop-opacity="1" stop-color="rgb(72.302246%, 45.106506%, 77.854919%)" offset="0.636719"/><stop stop-opacity="1" stop-color="rgb(72.537231%, 44.972229%, 77.46582%)" offset="0.640625"/><stop stop-opacity="1" stop-color="rgb(72.770691%, 44.836426%, 77.075195%)" offset="0.644531"/><stop stop-opacity="1" stop-color="rgb(73.005676%, 44.700623%, 76.686096%)" offset="0.648437"/><stop stop-opacity="1" stop-color="rgb(73.239136%, 44.564819%, 76.295471%)" offset="0.652344"/><stop stop-opacity="1" stop-color="rgb(73.474121%, 44.429016%, 75.906372%)" offset="0.65625"/><stop stop-opacity="1" stop-color="rgb(73.707581%, 44.293213%, 75.515747%)" offset="0.660156"/><stop stop-opacity="1" stop-color="rgb(73.942566%, 44.158936%, 75.126648%)" offset="0.664062"/><stop stop-opacity="1" stop-color="rgb(74.176025%, 44.023132%, 74.736023%)" offset="0.667969"/><stop stop-opacity="1" stop-color="rgb(74.411011%, 43.887329%, 74.346924%)" offset="0.671875"/><stop stop-opacity="1" stop-color="rgb(74.645996%, 43.751526%, 73.956299%)" offset="0.675781"/><stop stop-opacity="1" stop-color="rgb(74.880981%, 43.615723%, 73.5672%)" offset="0.679687"/><stop stop-opacity="1" stop-color="rgb(75.114441%, 43.479919%, 73.176575%)" offset="0.683594"/><stop stop-opacity="1" stop-color="rgb(75.349426%, 43.344116%, 72.787476%)" offset="0.6875"/><stop stop-opacity="1" stop-color="rgb(75.582886%, 43.208313%, 72.396851%)" offset="0.691406"/><stop stop-opacity="1" stop-color="rgb(75.817871%, 43.074036%, 72.007751%)" offset="0.695312"/><stop stop-opacity="1" stop-color="rgb(76.051331%, 42.938232%, 71.617126%)" offset="0.699219"/><stop stop-opacity="1" stop-color="rgb(76.286316%, 42.802429%, 71.228027%)" offset="0.703125"/><stop stop-opacity="1" stop-color="rgb(76.519775%, 42.666626%, 70.837402%)" offset="0.707031"/><stop stop-opacity="1" stop-color="rgb(76.754761%, 42.530823%, 70.448303%)" offset="0.710937"/><stop stop-opacity="1" stop-color="rgb(76.989746%, 42.39502%, 70.057678%)" offset="0.714844"/><stop stop-opacity="1" stop-color="rgb(77.224731%, 42.260742%, 69.668579%)" offset="0.71875"/><stop stop-opacity="1" stop-color="rgb(77.458191%, 42.124939%, 69.277954%)" offset="0.722656"/><stop stop-opacity="1" stop-color="rgb(77.693176%, 41.989136%, 68.888855%)" offset="0.726562"/><stop stop-opacity="1" stop-color="rgb(77.926636%, 41.853333%, 68.49823%)" offset="0.730469"/><stop stop-opacity="1" stop-color="rgb(78.161621%, 41.717529%, 68.109131%)" offset="0.734375"/><stop stop-opacity="1" stop-color="rgb(78.395081%, 41.581726%, 67.718506%)" offset="0.738281"/><stop stop-opacity="1" stop-color="rgb(78.630066%, 41.447449%, 67.329407%)" offset="0.742188"/><stop stop-opacity="1" stop-color="rgb(78.863525%, 41.311646%, 66.938782%)" offset="0.746094"/><stop stop-opacity="1" stop-color="rgb(79.098511%, 41.175842%, 66.549683%)" offset="0.75"/><stop stop-opacity="1" stop-color="rgb(79.333496%, 41.040039%, 66.159058%)" offset="0.753906"/><stop stop-opacity="1" stop-color="rgb(79.568481%, 40.904236%, 65.769958%)" offset="0.757812"/><stop stop-opacity="1" stop-color="rgb(79.801941%, 40.768433%, 65.379333%)" offset="0.761719"/><stop stop-opacity="1" stop-color="rgb(80.036926%, 40.634155%, 64.990234%)" offset="0.765625"/><stop stop-opacity="1" stop-color="rgb(80.270386%, 40.498352%, 64.599609%)" offset="0.769531"/><stop stop-opacity="1" stop-color="rgb(80.505371%, 40.362549%, 64.21051%)" offset="0.773438"/><stop stop-opacity="1" stop-color="rgb(80.738831%, 40.226746%, 63.819885%)" offset="0.777344"/><stop stop-opacity="1" stop-color="rgb(80.973816%, 40.090942%, 63.430786%)" offset="0.78125"/><stop stop-opacity="1" stop-color="rgb(81.207275%, 39.955139%, 63.040161%)" offset="0.785156"/><stop stop-opacity="1" stop-color="rgb(81.442261%, 39.819336%, 62.651062%)" offset="0.789063"/><stop stop-opacity="1" stop-color="rgb(81.677246%, 39.683533%, 62.260437%)" offset="0.792969"/><stop stop-opacity="1" stop-color="rgb(81.912231%, 39.549255%, 61.871338%)" offset="0.796875"/><stop stop-opacity="1" stop-color="rgb(82.145691%, 39.413452%, 61.480713%)" offset="0.800781"/><stop stop-opacity="1" stop-color="rgb(82.380676%, 39.277649%, 61.091614%)" offset="0.804688"/><stop stop-opacity="1" stop-color="rgb(82.614136%, 39.141846%, 60.700989%)" offset="0.808594"/><stop stop-opacity="1" stop-color="rgb(82.849121%, 39.006042%, 60.31189%)" offset="0.8125"/><stop stop-opacity="1" stop-color="rgb(83.082581%, 38.870239%, 59.921265%)" offset="0.816406"/><stop stop-opacity="1" stop-color="rgb(83.317566%, 38.735962%, 59.532166%)" offset="0.820313"/><stop stop-opacity="1" stop-color="rgb(83.551025%, 38.600159%, 59.141541%)" offset="0.824219"/><stop stop-opacity="1" stop-color="rgb(83.786011%, 38.464355%, 58.752441%)" offset="0.828125"/><stop stop-opacity="1" stop-color="rgb(84.020996%, 38.328552%, 58.361816%)" offset="0.832031"/><stop stop-opacity="1" stop-color="rgb(84.255981%, 38.192749%, 57.972717%)" offset="0.835938"/><stop stop-opacity="1" stop-color="rgb(84.489441%, 38.056946%, 57.582092%)" offset="0.839844"/><stop stop-opacity="1" stop-color="rgb(84.724426%, 37.922668%, 57.192993%)" offset="0.84375"/><stop stop-opacity="1" stop-color="rgb(84.957886%, 37.786865%, 56.802368%)" offset="0.847656"/><stop stop-opacity="1" stop-color="rgb(85.192871%, 37.651062%, 56.413269%)" offset="0.851563"/><stop stop-opacity="1" stop-color="rgb(85.426331%, 37.515259%, 56.022644%)" offset="0.855469"/><stop stop-opacity="1" stop-color="rgb(85.661316%, 37.379456%, 55.633545%)" offset="0.859375"/><stop stop-opacity="1" stop-color="rgb(85.894775%, 37.243652%, 55.24292%)" offset="0.863281"/><stop stop-opacity="1" stop-color="rgb(86.129761%, 37.109375%, 54.853821%)" offset="0.867188"/><stop stop-opacity="1" stop-color="rgb(86.364746%, 36.973572%, 54.463196%)" offset="0.871094"/><stop stop-opacity="1" stop-color="rgb(86.599731%, 36.837769%, 54.074097%)" offset="0.875"/><stop stop-opacity="1" stop-color="rgb(86.833191%, 36.701965%, 53.683472%)" offset="0.878906"/><stop stop-opacity="1" stop-color="rgb(87.068176%, 36.566162%, 53.294373%)" offset="0.882812"/><stop stop-opacity="1" stop-color="rgb(87.301636%, 36.430359%, 52.903748%)" offset="0.886719"/><stop stop-opacity="1" stop-color="rgb(87.536621%, 36.294556%, 52.514648%)" offset="0.890625"/><stop stop-opacity="1" stop-color="rgb(87.770081%, 36.158752%, 52.124023%)" offset="0.894531"/><stop stop-opacity="1" stop-color="rgb(88.005066%, 36.024475%, 51.734924%)" offset="0.898438"/><stop stop-opacity="1" stop-color="rgb(88.238525%, 35.888672%, 51.344299%)" offset="0.902344"/><stop stop-opacity="1" stop-color="rgb(88.473511%, 35.752869%, 50.9552%)" offset="0.90625"/><stop stop-opacity="1" stop-color="rgb(88.708496%, 35.617065%, 50.564575%)" offset="0.910156"/><stop stop-opacity="1" stop-color="rgb(88.943481%, 35.481262%, 50.175476%)" offset="0.914062"/><stop stop-opacity="1" stop-color="rgb(89.176941%, 35.345459%, 49.784851%)" offset="0.917969"/><stop stop-opacity="1" stop-color="rgb(89.411926%, 35.211182%, 49.395752%)" offset="0.921875"/><stop stop-opacity="1" stop-color="rgb(89.645386%, 35.075378%, 49.005127%)" offset="0.925781"/><stop stop-opacity="1" stop-color="rgb(89.880371%, 34.939575%, 48.616028%)" offset="0.929688"/><stop stop-opacity="1" stop-color="rgb(90.113831%, 34.803772%, 48.225403%)" offset="0.933594"/><stop stop-opacity="1" stop-color="rgb(90.348816%, 34.667969%, 47.836304%)" offset="0.9375"/><stop stop-opacity="1" stop-color="rgb(90.582275%, 34.532166%, 47.445679%)" offset="0.941406"/><stop stop-opacity="1" stop-color="rgb(90.817261%, 34.397888%, 47.05658%)" offset="0.945312"/><stop stop-opacity="1" stop-color="rgb(91.052246%, 34.262085%, 46.665955%)" offset="0.949219"/><stop stop-opacity="1" stop-color="rgb(91.287231%, 34.126282%, 46.276855%)" offset="0.953125"/><stop stop-opacity="1" stop-color="rgb(91.520691%, 33.990479%, 45.88623%)" offset="0.957031"/><stop stop-opacity="1" stop-color="rgb(91.755676%, 33.854675%, 45.497131%)" offset="0.960938"/><stop stop-opacity="1" stop-color="rgb(91.989136%, 33.718872%, 45.106506%)" offset="0.964844"/><stop stop-opacity="1" stop-color="rgb(92.224121%, 33.583069%, 44.717407%)" offset="0.96875"/><stop stop-opacity="1" stop-color="rgb(92.457581%, 33.447266%, 44.326782%)" offset="0.972656"/><stop stop-opacity="1" stop-color="rgb(92.692566%, 33.312988%, 43.937683%)" offset="0.976562"/><stop stop-opacity="1" stop-color="rgb(92.926025%, 33.177185%, 43.547058%)" offset="0.980469"/><stop stop-opacity="1" stop-color="rgb(93.161011%, 33.041382%, 43.157959%)" offset="0.984375"/><stop stop-opacity="1" stop-color="rgb(93.395996%, 32.905579%, 42.767334%)" offset="0.988281"/><stop stop-opacity="1" stop-color="rgb(93.630981%, 32.769775%, 42.378235%)" offset="0.992188"/><stop stop-opacity="1" stop-color="rgb(93.864441%, 32.633972%, 41.98761%)" offset="0.996094"/><stop stop-opacity="1" stop-color="rgb(94.099426%, 32.499695%, 41.598511%)" offset="1"/></linearGradient></defs><g clip-path="url(#id1)"><g clip-path="url(#id2)"><path fill="url(#id3)" d="M 69.746094 69.746094 L 69.746094 305.246094 L 305.246094 305.246094 L 305.246094 69.746094 Z M 69.746094 69.746094 " fill-rule="nonzero"/></g></g></svg>